  0
SECTION
  2
HEADER
  9
$ACADVER
  1
AC1009
  9
$INSBASE
 10
0.0
 20
0.0
 30
0.0
  9
$EXTMIN
 10
0.0
 20
0.0
 30
0.0
  9
$EXTMAX
 10
54.5267499007048571
 20
66.4611429573383958
 30
0.0
  9
$LIMMIN
 10
0.0
 20
0.0
  9
$LIMMAX
 10
54.5267499007048571
 20
66.4611429573383958
  9
$ORTHOMODE
 70
     0
  9
$REGENMODE
 70
     1
  9
$FILLMODE
 70
     1
  9
$QTEXTMODE
 70
     0
  9
$MIRRTEXT
 70
     0
  9
$DRAGMODE
 70
     2
  9
$LTSCALE
 40
1.0
  9
$OSMODE
 70
     0
  9
$ATTMODE
 70
     1
  9
$TEXTSIZE
 40
0.2
  9
$TRACEWID
 40
0.05
  9
$TEXTSTYLE
  7
STANDARD
  9
$CLAYER
  8
0
  9
$CELTYPE
  6
BYLAYER
  9
$CECOLOR
 62
   256
  9
$DIMSCALE
 40
1.0
  9
$DIMASZ
 40
0.18
  9
$DIMEXO
 40
0.0625
  9
$DIMDLI
 40
0.38
  9
$DIMRND
 40
0.0
  9
$DIMDLE
 40
0.0
  9
$DIMEXE
 40
0.18
  9
$DIMTP
 40
0.0
  9
$DIMTM
 40
0.0
  9
$DIMTXT
 40
0.18
  9
$DIMCEN
 40
0.09
  9
$DIMTSZ
 40
0.0
  9
$DIMTOL
 70
     0
  9
$DIMLIM
 70
     0
  9
$DIMTIH
 70
     1
  9
$DIMTOH
 70
     1
  9
$DIMSE1
 70
     0
  9
$DIMSE2
 70
     0
  9
$DIMTAD
 70
     0
  9
$DIMZIN
 70
     0
  9
$DIMBLK
  1

  9
$DIMASO
 70
     1
  9
$DIMSHO
 70
     1
  9
$DIMPOST
  1

  9
$DIMAPOST
  1

  9
$DIMALT
 70
     0
  9
$DIMALTD
 70
     2
  9
$DIMALTF
 40
25.3999999999999986
  9
$DIMLFAC
 40
1.0
  9
$DIMTOFL
 70
     0
  9
$DIMTVP
 40
0.0
  9
$DIMTIX
 70
     0
  9
$DIMSOXD
 70
     0
  9
$DIMSAH
 70
     0
  9
$DIMBLK1
  1

  9
$DIMBLK2
  1

  9
$DIMSTYLE
  2
STANDARD
  9
$DIMCLRD
 70
     0
  9
$DIMCLRE
 70
     0
  9
$DIMCLRT
 70
     0
  9
$DIMTFAC
 40
1.0
  9
$DIMGAP
 40
0.09
  9
$LUNITS
 70
     2
  9
$LUPREC
 70
     4
  9
$SKETCHINC
 40
0.1
  9
$FILLETRAD
 40
0.0
  9
$AUNITS
 70
     0
  9
$AUPREC
 70
     0
  9
$MENU
  1
.
  9
$ELEVATION
 40
0.0
  9
$PELEVATION
 40
0.0
  9
$THICKNESS
 40
0.0
  9
$LIMCHECK
 70
     0
  9
$BLIPMODE
 70
     0
  9
$CHAMFERA
 40
0.0
  9
$CHAMFERB
 40
0.0
  9
$SKPOLY
 70
     0
  9
$TDCREATE
 40
2458166.6320254630409181
  9
$TDUPDATE
 40
2458166.6320254630409181
  9
$TDINDWG
 40
0.0000115741
  9
$TDUSRTIMER
 40
0.0000115741
  9
$USRTIMER
 70
     1
  9
$ANGBASE
 50
0.0
  9
$ANGDIR
 70
     0
  9
$PDMODE
 70
     0
  9
$PDSIZE
 40
0.0
  9
$PLINEWID
 40
0.0
  9
$COORDS
 70
     0
  9
$SPLFRAME
 70
     0
  9
$SPLINETYPE
 70
     6
  9
$SPLINESEGS
 70
     8
  9
$ATTDIA
 70
     1
  9
$ATTREQ
 70
     1
  9
$HANDLING
 70
     1
  9
$HANDSEED
  5
3F4
  9
$SURFTAB1
 70
     6
  9
$SURFTAB2
 70
     6
  9
$SURFTYPE
 70
     6
  9
$SURFU
 70
     6
  9
$SURFV
 70
     6
  9
$UCSNAME
  2

  9
$UCSORG
 10
0.0
 20
0.0
 30
0.0
  9
$UCSXDIR
 10
1.0
 20
0.0
 30
0.0
  9
$UCSYDIR
 10
0.0
 20
1.0
 30
0.0
  9
$PUCSNAME
  2

  9
$PUCSORG
 10
0.0
 20
0.0
 30
0.0
  9
$PUCSXDIR
 10
1.0
 20
0.0
 30
0.0
  9
$PUCSYDIR
 10
0.0
 20
1.0
 30
0.0
  9
$USERI1
 70
     0
  9
$USERI2
 70
     0
  9
$USERI3
 70
     0
  9
$USERI4
 70
     0
  9
$USERI5
 70
     0
  9
$USERR1
 40
0.0
  9
$USERR2
 40
0.0
  9
$USERR3
 40
0.0
  9
$USERR4
 40
0.0
  9
$USERR5
 40
0.0
  9
$WORLDVIEW
 70
     1
  9
$SHADEDGE
 70
     3
  9
$SHADEDIF
 70
    70
  9
$TILEMODE
 70
     1
  9
$MAXACTVP
 70
    64
  9
$PLIMCHECK
 70
     0
  9
$PEXTMIN
 10
0.0
 20
0.0
 30
0.0
  9
$PEXTMAX
 10
54.5267499007048571
 20
66.4611429573383958
 30
0.0
  9
$PLIMMIN
 10
0.0
 20
0.0
  9
$PLIMMAX
 10
54.5267499007048571
 20
66.4611429573383958
  9
$UNITMODE
 70
     0
  9
$VISRETAIN
 70
     1
  9
$PLINEGEN
 70
     0
  9
$PSLTSCALE
 70
     1
  0
ENDSEC
  0
SECTION
  2
TABLES
  0
TABLE
  2
VPORT
 70
     1
  0
VPORT
  2
*ACTIVE
 70
     0
 10
0.0
 20
0.0
 11
1.0
 21
1.0
 12
22.1848870099160891
 22
-30.2096104351538095
 13
0.0
 23
0.0
 14
1.0
 24
1.0
 15
0.0
 25
0.0
 16
0.0
 26
0.0
 36
1.0
 17
0.0
 27
0.0
 37
0.0
 40
66.4611429573383958
 41
0.8204305173581763
 42
50.0
 43
0.0
 44
0.0
 50
0.0
 51
0.0
 71
     0
 72
   100
 73
     1
 74
     1
 75
     0
 76
     0
 77
     0
 78
     0
  0
ENDTAB
  0
TABLE
  2
LTYPE
 70
    59
  0
LTYPE
  2
CONTINUOUS
 70
     0
  3
Solid line
 72
    65
 73
     0
 40
0.0
  0
LTYPE
  2
BY_STANDARD
 70
     0
  3
By Standard ____________    ____    ____   _
 72
    65
 73
     6
 40
1.2402999999999991
 49
0.6614
 49
-0.0827
 49
0.1654
 49
-0.0827
 49
0.1654
 49
-0.0827
  0
LTYPE
  2
CHAIN
 70
     0
  3
Chain ____ _ ____ _ ____ _ ____ _ ____ _ ____
 72
    65
 73
     4
 40
0.7087
 49
0.4724000000000001
 49
-0.0591
 49
0.1181
 49
-0.0591
  0
LTYPE
  2
DASH_DOT
 70
     0
  3
Dash dot __ . __ . __ . __ . __ . __ . __ . __
 72
    65
 73
     4
 40
0.37
 49
0.24
 49
-0.06
 49
0.01
 49
-0.06
  0
LTYPE
  2
DOUBLE_DASH_DOT
 70
     0
  3
Double-Dash Dot __ __ . __ __ . __ __ . __ _
 72
    65
 73
     6
 40
0.4398
 49
0.24
 49
-0.06
 49
0.0098
 49
-0.06
 49
0.01
 49
-0.06
  0
LTYPE
  2
DASH_TRIPLE_DOT
 70
     0
  3
Dash Triple-Dot _ . . . _ . . . _ . . . _
 72
    65
 73
     8
 40
0.51
 49
0.24
 49
-0.06
 49
0.01
 49
-0.06
 49
0.01
 49
-0.06
 49
0.01
 49
-0.06
  0
LTYPE
  2
DASHED
 70
     0
  3
Dashed __ __ __ __ __ __ __ __ __ __ __ __ __ _
 72
    65
 73
     2
 40
0.2067
 49
0.1654
 49
-0.0413
  0
LTYPE
  2
DASH_DOUBLE_DOT
 70
     0
  3
Dash Double-Dot __ . . __ . . __ . . __ . .
 72
    65
 73
     6
 40
0.4398
 49
0.24
 49
-0.06
 49
0.0098
 49
-0.06
 49
0.01
 49
-0.06
  0
LTYPE
  2
DASHED_SPACE
 70
     0
  3
Dashed Space __ __ __ __ __ __ __ __ __ __ __ _
 72
    65
 73
     2
 40
0.2067
 49
0.1654
 49
-0.0413
  0
LTYPE
  2
DOTTED
 70
     0
  3
Dotted . . . . . . . . . . . . . . . . . . . . 
 72
    65
 73
     2
 40
0.0482
 49
0.0069
 49
-0.0413
  0
LTYPE
  2
DOUBLE_DASH_CHAIN
 70
     0
  3
Double-Dash Chain ______  __  __  ______  __  _
 72
    65
 73
     6
 40
1.2402999999999991
 49
0.6614
 49
-0.0827
 49
0.1654
 49
-0.0827
 49
0.1654
 49
-0.0827
  0
LTYPE
  2
DOUBLE_DASH_DOUBLE_DOT
 70
     0
  3
Double-Dash Double-dot _ _ . . _ _ . . _
 72
    65
 73
     8
 40
0.7400000000000001
 49
0.24
 49
-0.06
 49
0.24
 49
-0.06
 49
0.01
 49
-0.06
 49
0.01
 49
-0.06
  0
LTYPE
  2
DOUBLE_DASH_TRIPLE_DOT
 70
     0
  3
Double Dash Triple Dot __ __ . . . __ __ . .
 72
    65
 73
    10
 40
0.8100000000000001
 49
0.24
 49
-0.06
 49
0.24
 49
-0.06
 49
0.01
 49
-0.06
 49
0.01
 49
-0.06
 49
0.01
 49
-0.06
  0
LTYPE
  2
LONG_DASH_DOTTED
 70
     0
  3
Long Dash Dotted ____ . ____ . ____ . ____ . _
 72
    65
 73
     4
 40
0.3543
 49
0.2362
 49
-0.0295
 49
0.0591
 49
-0.0295
  0
LTYPE
  2
LONG_DASH_DOUBLE_DOT
 70
     0
  3
Long Dash Double Dot ________  .  .  ________  
 72
    65
 73
     6
 40
0.6799999999999999
 49
0.48
 49
-0.06
 49
0.01
 49
-0.06
 49
0.01
 49
-0.06
  0
LTYPE
  2
LONG_DASH_TRIPLE_DOT
 70
     0
  3
Long Dash Triple Dot ____ ... ____ ... ____
 72
    65
 73
     8
 40
0.3689
 49
0.2362
 49
-0.0295
 49
0.0049
 49
-0.0295
 49
0.0049
 49
-0.0295
 49
0.0049
 49
-0.0295
  0
LTYPE
  2
BORDER
 70
     0
  3
Border __ __ . __ __ . __ __ . __ __ . __ __ .
 72
    65
 73
     6
 40
1.75
 49
0.5
 49
-0.25
 49
0.5
 49
-0.25
 49
0.0
 49
-0.25
  0
LTYPE
  2
BORDER2
 70
     0
  3
Border (.5x) __.__.__.__.__.__.__.__.__.__.__.
 72
    65
 73
     6
 40
0.875
 49
0.25
 49
-0.125
 49
0.25
 49
-0.125
 49
0.0
 49
-0.125
  0
LTYPE
  2
BORDERX2
 70
     0
  3
Border (2x) ____  ____  .  ____  ____  .  ___
 72
    65
 73
     6
 40
3.5
 49
1.0
 49
-0.5
 49
1.0
 49
-0.5
 49
0.0
 49
-0.5
  0
LTYPE
  2
CENTER
 70
     0
  3
Center ____ _ ____ _ ____ _ ____ _ ____ _ ____
 72
    65
 73
     4
 40
2.0
 49
1.25
 49
-0.25
 49
0.25
 49
-0.25
  0
LTYPE
  2
CENTER2
 70
     0
  3
Center (.5x) ___ _ ___ _ ___ _ ___ _ ___ _ ___
 72
    65
 73
     4
 40
1.125
 49
0.75
 49
-0.125
 49
0.125
 49
-0.125
  0
LTYPE
  2
CENTERX2
 70
     0
  3
Center (2x) ________  __  ________  __  _____
 72
    65
 73
     4
 40
4.0
 49
2.5
 49
-0.5
 49
0.5
 49
-0.5
  0
LTYPE
  2
DASHDOT2
 70
     0
  3
Dash dot (.5x) _._._._._._._._._._._._._._._.
 72
    65
 73
     4
 40
0.5
 49
0.25
 49
-0.125
 49
0.0
 49
-0.125
  0
LTYPE
  2
DASHDOTX2
 70
     0
  3
Dash dot (2x) ____  .  ____  .  ____  .  ___
 72
    65
 73
     4
 40
2.0
 49
1.0
 49
-0.5
 49
0.0
 49
-0.5
  0
LTYPE
  2
DASHED2
 70
     0
  3
Dashed (.5x) _ _ _ _ _ _ _ _ _ _ _ _ _ _ _ _ _
 72
    65
 73
     2
 40
0.375
 49
0.25
 49
-0.125
  0
LTYPE
  2
DASHEDX2
 70
     0
  3
Dashed (2x) ____  ____  ____  ____  ____  ___
 72
    65
 73
     2
 40
1.5
 49
1.0
 49
-0.5
  0
LTYPE
  2
DIVIDE
 70
     0
  3
Divide ____ . . ____ . . ____ . . ____ . . ____
 72
    65
 73
     6
 40
1.25
 49
0.5
 49
-0.25
 49
0.0
 49
-0.25
 49
0.0
 49
-0.25
  0
LTYPE
  2
DIVIDE2
 70
     0
  3
Divide (.5x) __..__..__..__..__..__..__..__.._
 72
    65
 73
     6
 40
0.625
 49
0.25
 49
-0.125
 49
0.0
 49
-0.125
 49
0.0
 49
-0.125
  0
LTYPE
  2
DIVIDEX2
 70
     0
  3
Divide (2x) ________  .  .  ________  .  .  _
 72
    65
 73
     6
 40
2.5
 49
1.0
 49
-0.5
 49
0.0
 49
-0.5
 49
0.0
 49
-0.5
  0
LTYPE
  2
DOT
 70
     0
  3
Dot . . . . . . . . . . . . . . . . . . . . . .
 72
    65
 73
     2
 40
0.25
 49
0.0
 49
-0.25
  0
LTYPE
  2
DOT2
 70
     0
  3
Dot (.5x) .....................................
 72
    65
 73
     2
 40
0.125
 49
0.0
 49
-0.125
  0
LTYPE
  2
DOTX2
 70
     0
  3
Dot (2x) .  .  .  .  .  .  .  .  .  .  .  .  . 
 72
    65
 73
     2
 40
0.5
 49
0.0
 49
-0.5
  0
LTYPE
  2
HIDDEN
 70
     0
  3
Hidden __ __ __ __ __ __ __ __ __ __ __ __ __ _
 72
    65
 73
     2
 40
0.375
 49
0.25
 49
-0.125
  0
LTYPE
  2
HIDDEN2
 70
     0
  3
Hidden (.5x) _ _ _ _ _ _ _ _ _ _ _ _ _ _ _ _ _
 72
    65
 73
     2
 40
0.1875
 49
0.125
 49
-0.0625
  0
LTYPE
  2
HIDDENX2
 70
     0
  3
Hidden (2x) ____ ____ ____ ____ ____ ____ ____
 72
    65
 73
     2
 40
0.75
 49
0.5
 49
-0.25
  0
LTYPE
  2
PHANTOM
 70
     0
  3
Phantom ______  __  __  ______  __  __  ______
 72
    65
 73
     6
 40
2.5
 49
1.25
 49
-0.25
 49
0.25
 49
-0.25
 49
0.25
 49
-0.25
  0
LTYPE
  2
PHANTOM2
 70
     0
  3
Phantom (.5x) ___ _ _ ___ _ _ ___ _ _ ___ _ _
 72
    65
 73
     6
 40
1.25
 49
0.625
 49
-0.125
 49
0.125
 49
-0.125
 49
0.125
 49
-0.125
  0
LTYPE
  2
PHANTOMX2
 70
     0
  3
Phantom (2x) ____________    ____    ____   _
 72
    65
 73
     6
 40
5.0
 49
2.5
 49
-0.5
 49
0.5
 49
-0.5
 49
0.5
 49
-0.5
  0
LTYPE
  2
ACAD_ISO02W100
 70
     0
  3
ISO dash __ __ __ __ __ __ __ __ __ __ __ __ __
 72
    65
 73
     2
 40
0.59
 49
0.47
 49
-0.12
  0
LTYPE
  2
ACAD_ISO03W100
 70
     0
  3
ISO dash space __    __    __    __    __    __
 72
    65
 73
     2
 40
1.179999999999999
 49
0.47
 49
-0.71
  0
LTYPE
  2
ACAD_ISO04W100
 70
     0
  3
ISO long-dash dot ____ . ____ . ____ . ____ . _
 72
    65
 73
     4
 40
1.179999999999999
 49
0.9399999999999998
 49
-0.12
 49
0.0
 49
-0.12
  0
LTYPE
  2
ACAD_ISO05W100
 70
     0
  3
ISO long-dash double-dot ____ .. ____ .. ____ .
 72
    65
 73
     6
 40
1.2999999999999989
 49
0.9399999999999998
 49
-0.12
 49
0.0
 49
-0.12
 49
0.0
 49
-0.12
  0
LTYPE
  2
ACAD_ISO06W100
 70
     0
  3
ISO long-dash triple-dot ____ ... ____ ... ____
 72
    65
 73
     8
 40
1.419999999999999
 49
0.9399999999999998
 49
-0.12
 49
0.0
 49
-0.12
 49
0.0
 49
-0.12
 49
0.0
 49
-0.12
  0
LTYPE
  2
ACAD_ISO07W100
 70
     0
  3
ISO dot . . . . . . . . . . . . . . . . . . . .
 72
    65
 73
     2
 40
0.12
 49
0.0
 49
-0.12
  0
LTYPE
  2
ACAD_ISO08W100
 70
     0
  3
ISO long-dash short-dash ____ __ ____ __ ____ _
 72
    65
 73
     4
 40
0.95
 49
0.47
 49
-0.12
 49
0.24
 49
-0.12
  0
LTYPE
  2
ACAD_ISO09W100
 70
     0
  3
ISO long-dash double-short-dash ____ __ __ ____
 72
    65
 73
     6
 40
1.3100000000000001
 49
0.47
 49
-0.12
 49
0.24
 49
-0.12
 49
0.24
 49
-0.12
  0
LTYPE
  2
ACAD_ISO10W100
 70
     0
  3
ISO dash dot __ . __ . __ . __ . __ . __ . __ .
 72
    65
 73
     4
 40
0.71
 49
0.47
 49
-0.12
 49
0.0
 49
-0.12
  0
LTYPE
  2
ACAD_ISO11W100
 70
     0
  3
ISO double-dash dot __ __ . __ __ . __ __ . __ 
 72
    65
 73
     6
 40
1.2999999999999989
 49
0.47
 49
-0.12
 49
0.47
 49
-0.12
 49
0.0
 49
-0.12
  0
LTYPE
  2
ACAD_ISO12W100
 70
     0
  3
ISO dash double-dot __ . . __ . . __ . . __ . .
 72
    65
 73
     6
 40
0.8299999999999998
 49
0.47
 49
-0.12
 49
0.0
 49
-0.12
 49
0.0
 49
-0.12
  0
LTYPE
  2
ACAD_ISO13W100
 70
     0
  3
ISO double-dash double-dot __ __ . . __ __ . . 
 72
    65
 73
     8
 40
1.419999999999999
 49
0.47
 49
-0.12
 49
0.47
 49
-0.12
 49
0.0
 49
-0.12
 49
0.0
 49
-0.12
  0
LTYPE
  2
ACAD_ISO14W100
 70
     0
  3
ISO dash triple-dot __ . . . __ . . . __ . . . 
 72
    65
 73
     8
 40
0.95
 49
0.47
 49
-0.12
 49
0.0
 49
-0.12
 49
0.0
 49
-0.12
 49
0.0
 49
-0.12
  0
LTYPE
  2
ACAD_ISO15W100
 70
     0
  3
ISO double-dash triple-dot __ __ . . . __ __ . 
 72
    65
 73
    10
 40
1.5399999999999989
 49
0.47
 49
-0.12
 49
0.47
 49
-0.12
 49
0.0
 49
-0.12
 49
0.0
 49
-0.12
 49
0.0
 49
-0.12
  0
LTYPE
  2
FENCELINE1
 70
     0
  3
Fenceline circle ----0-----0----0-----0----0---
 72
    65
 73
     4
 40
1.45
 49
0.25
 49
-0.1
 49
-0.1
 49
1.0
  0
LTYPE
  2
FENCELINE2
 70
     0
  3
Fenceline square ----[]-----[]----[]-----[]----
 72
    65
 73
     4
 40
1.45
 49
0.25
 49
-0.1
 49
-0.1
 49
1.0
  0
LTYPE
  2
TRACKS
 70
     0
  3
Tracks -|-|-|-|-|-|-|-|-|-|-|-|-|-|-|-|-|-|-|-|
 72
    65
 73
     2
 40
0.3
 49
0.15
 49
0.15
  0
LTYPE
  2
BATTING
 70
     0
  3
Batting SSSSSSSSSSSSSSSSSSSSSSSSSSSSSSSSSSSSSSS
 72
    65
 73
     4
 40
0.4001000000000001
 49
0.0001
 49
-0.1
 49
-0.2
 49
-0.1
  0
LTYPE
  2
HOT_WATER_SUPPLY
 70
     0
  3
Hot water supply ---- HW ---- HW ---- HW ----
 72
    65
 73
     3
 40
0.9
 49
0.5
 49
-0.2
 49
-0.2
  0
LTYPE
  2
GAS_LINE
 70
     0
  3
Gas line ----GAS----GAS----GAS----GAS----GAS---
 72
    65
 73
     3
 40
0.95
 49
0.5
 49
-0.2
 49
-0.25
  0
LTYPE
  2
ZIGZAG
 70
     0
  3
Zig zag /\/\/\/\/\/\/\/\/\/\/\/\/\/\/\/\/\/\/\/
 72
    65
 73
     4
 40
0.8001000000000001
 49
0.0001
 49
-0.2
 49
-0.4
 49
-0.2
  0
ENDTAB
  0
TABLE
  2
LAYER
 70
     1
  0
LAYER
  2
0
 70
     0
 62
     7
  6
CONTINUOUS
  0
ENDTAB
  0
TABLE
  2
STYLE
 70
     7
  0
STYLE
  2
STANDARD
 70
     0
 40
0.0
 41
1.0
 50
0.0
 71
     0
 42
0.2
  3
txt
  4

  0
STYLE
  2
ANNOTATIVE
 70
     0
 40
0.0
 41
1.0
 50
0.0
 71
     0
 42
0.2
  3
txt
  4

  0
STYLE
  2

 70
     1
 40
0.0
 41
1.0
 50
0.0
 71
     0
 42
0.2
  3
ltypeshp.shx
  4

  0
STYLE
  2
NOTE_TEXT__ANSI__-_3DA
 70
     0
 40
0.0
 41
1.0
 50
0.0
 71
     0
 42
0.2
  3
txt.shx
  4
bigfont.shx
  0
STYLE
  2
SKETCH_TEXT__ANSI__-_3DA
 70
     0
 40
0.0
 41
1.0
 50
0.0
 71
     0
 42
0.2
  3
txt.shx
  4
bigfont.shx
  0
STYLE
  2
STANDARDANNOTATIVE
 70
     0
 40
0.0
 41
1.0
 50
0.0
 71
     0
 42
0.2
  3
txt.shx
  4
bigfont.shx
  0
STYLE
  2
STANDARDSTANDARD
 70
     0
 40
0.0
 41
1.0
 50
0.0
 71
     0
 42
0.2
  3
txt.shx
  4
bigfont.shx
  0
ENDTAB
  0
TABLE
  2
VIEW
 70
     0
  0
ENDTAB
  0
TABLE
  2
UCS
 70
     0
  0
ENDTAB
  0
TABLE
  2
APPID
 70
     3
  0
APPID
  2
ACAD
 70
     0
  0
APPID
  2
ACADANNOTATIVE
 70
     0
  0
APPID
  2
ACAD_MLEADERVER
 70
     0
  0
ENDTAB
  0
TABLE
  2
DIMSTYLE
 70
     2
  0
DIMSTYLE
  2
STANDARD
 70
     0
  3

  4

  5

  6

  7

 40
1.0
 41
0.18
 42
0.0625
 43
0.38
 44
0.18
 45
0.0
 46
0.0
 47
0.0
 48
0.0
140
0.18
141
0.09
142
0.0
143
25.3999999999999986
144
1.0
145
0.0
146
1.0
147
0.09
 71
     0
 72
     0
 73
     1
 74
     1
 75
     0
 76
     0
 77
     0
 78
     0
170
     0
171
     2
172
     0
173
     0
174
     0
175
     0
176
     0
177
     0
178
     0
  0
DIMSTYLE
  2
ANNOTATIVE
 70
     0
  3

  4

  5

  6

  7

 40
1.0
 41
0.18
 42
0.0625
 43
0.38
 44
0.18
 45
0.0
 46
0.0
 47
0.0
 48
0.0
140
0.18
141
0.09
142
0.0
143
25.3999999999999986
144
1.0
145
0.0
146
1.0
147
0.09
 71
     0
 72
     0
 73
     1
 74
     1
 75
     0
 76
     0
 77
     0
 78
     0
170
     0
171
     2
172
     0
173
     0
174
     0
175
     0
176
     0
177
     0
178
     0
  0
ENDTAB
  0
ENDSEC
  0
SECTION
  2
BLOCKS
  0
BLOCK
  8
0
  2
$MODEL_SPACE
 70
     0
 10
0.0
 20
0.0
 30
0.0
  3
$MODEL_SPACE
  1

  0
ENDBLK
  5
72
  8
0
  0
BLOCK
 67
     1
  8
0
  2
$PAPER_SPACE
 70
     0
 10
0.0
 20
0.0
 30
0.0
  3
$PAPER_SPACE
  1

  0
ENDBLK
  5
6E
 67
     1
  8
0
  0
ENDSEC
  0
SECTION
  2
ENTITIES
  0
POLYLINE
  5
BA
  8
0
 62
   250
 66
     1
 10
0.0
 20
0.0
 30
0.0
 70
   129
  0
VERTEX
  5
BB
  8
0
 62
   250
 10
23.263276075873911
 20
-44.433420228307611
 30
0.0
  0
VERTEX
  5
BC
  8
0
 62
   250
 10
23.7929209398738983
 20
-44.5057137083075887
 30
0.0
  0
VERTEX
  5
BE
  8
0
 62
   250
 10
24.4513623458739318
 20
-44.7100379123075982
 30
0.0
  0
VERTEX
  5
BF
  8
0
 62
   250
 10
25.0479738018739084
 20
-45.0342170963075716
 30
0.0
  0
VERTEX
  5
C0
  8
0
 62
   250
 10
25.5671551358739109
 20
-45.4636023183076006
 30
0.0
  0
VERTEX
  5
C1
  8
0
 62
   250
 10
25.9965403578739007
 20
-45.9825934063076076
 30
0.0
  0
VERTEX
  5
C2
  8
0
 62
   250
 10
26.3205292958739001
 20
-46.5792048623076127
 30
0.0
  0
VERTEX
  5
C3
  8
0
 62
   250
 10
26.5248534998739096
 20
-47.2376462683075786
 30
0.0
  0
VERTEX
  5
C4
  8
0
 62
   250
 10
26.596195749873921
 20
-47.767100886307631
 30
0.0
  0
VERTEX
  5
C5
  8
0
 62
   250
 10
26.596195749873889
 20
-47.943649174307609
 30
0.0
  0
VERTEX
  5
C6
  8
0
 62
   250
 10
26.596195749873921
 20
-48.1211486923076066
 30
0.0
  0
VERTEX
  5
C7
  8
0
 62
   250
 10
26.5248534998739203
 20
-48.6507935563075975
 30
0.0
  0
VERTEX
  5
C8
  8
0
 62
   250
 10
26.3205292958739001
 20
-49.3092349623075989
 30
0.0
  0
VERTEX
  5
C9
  8
0
 62
   250
 10
25.9965403578739007
 20
-49.9047049423075677
 30
0.0
  0
VERTEX
  5
CA
  8
0
 62
   250
 10
25.5671551358739215
 20
-50.4250277523076207
 30
0.0
  0
VERTEX
  5
CB
  8
0
 62
   250
 10
25.0479738018739013
 20
-50.853271498307592
 30
0.0
  0
VERTEX
  5
CC
  8
0
 62
   250
 10
24.4513623458739104
 20
-51.1776409283076177
 30
0.0
  0
VERTEX
  5
CD
  8
0
 62
   250
 10
23.792920939873909
 20
-51.3817748863075892
 30
0.0
  0
VERTEX
  5
CE
  8
0
 62
   250
 10
23.2632760758739217
 20
-51.4529268903076016
 30
0.0
  0
VERTEX
  5
CF
  8
0
 62
   250
 10
23.0857765578739205
 20
-51.4529268903075874
 30
0.0
  0
VERTEX
  5
D0
  8
0
 62
   250
 10
22.9092282698738892
 20
-51.4529268903075874
 30
0.0
  0
VERTEX
  5
D1
  8
0
 62
   250
 10
22.3797736518738901
 20
-51.3817748863076105
 30
0.0
  0
VERTEX
  5
D2
  8
0
 62
   250
 10
21.7222834758739012
 20
-51.1776409283076035
 30
0.0
  0
VERTEX
  5
D3
  8
0
 62
   250
 10
21.125672019873921
 20
-50.853271498307592
 30
0.0
  0
VERTEX
  5
D4
  8
0
 62
   250
 10
20.6066809318738997
 20
-50.4250277523076207
 30
0.0
  0
VERTEX
  5
D5
  8
0
 62
   250
 10
20.1782469398739117
 20
-49.9047049423075677
 30
0.0
  0
VERTEX
  5
D6
  8
0
 62
   250
 10
19.8542580018739088
 20
-49.3092349623075989
 30
0.0
  0
VERTEX
  5
D7
  8
0
 62
   250
 10
19.6497435518739003
 20
-48.6507935563075975
 30
0.0
  0
VERTEX
  5
D8
  8
0
 62
   250
 10
19.5776403178739002
 20
-48.1211486923075995
 30
0.0
  0
VERTEX
  5
D9
  8
0
 62
   250
 10
19.5776403178739109
 20
-47.943649174307609
 30
0.0
  0
VERTEX
  5
DA
  8
0
 62
   250
 10
19.5776403178739002
 20
-47.7671008863076025
 30
0.0
  0
VERTEX
  5
DB
  8
0
 62
   250
 10
19.649743551873879
 20
-47.2376462683075786
 30
0.0
  0
VERTEX
  5
DC
  8
0
 62
   250
 10
19.8542580018739088
 20
-46.5792048623076411
 30
0.0
  0
VERTEX
  5
DD
  8
0
 62
   250
 10
20.1782469398738797
 20
-45.9825934063076005
 30
0.0
  0
VERTEX
  5
DE
  8
0
 62
   250
 10
20.6066809318738997
 20
-45.4636023183076006
 30
0.0
  0
VERTEX
  5
DF
  8
0
 62
   250
 10
21.125672019873889
 20
-45.0342170963076285
 30
0.0
  0
VERTEX
  5
E0
  8
0
 62
   250
 10
21.7222834758739083
 20
-44.7100379123075982
 30
0.0
  0
VERTEX
  5
E1
  8
0
 62
   250
 10
22.3797736518739185
 20
-44.5057137083075887
 30
0.0
  0
VERTEX
  5
E2
  8
0
 62
   250
 10
22.9092282698739105
 20
-44.433420228307611
 30
0.0
  0
VERTEX
  5
E3
  8
0
 62
   250
 10
23.0857765578739205
 20
-44.4334202283075825
 30
0.0
  0
SEQEND
  5
BD
  8
0
 62
   250
  0
POLYLINE
  5
E5
  8
0
 62
   250
 66
     1
 10
0.0
 20
0.0
 30
0.0
 70
   129
  0
VERTEX
  5
E6
  8
0
 62
   250
 10
8.3900340418738821
 20
-41.0685392263076068
 30
0.0
  0
VERTEX
  5
E7
  8
0
 62
   250
 10
8.4210441398739277
 20
-41.5196124923076013
 30
0.0
  0
VERTEX
  5
E9
  8
0
 62
   250
 10
8.4263710278738948
 20
-41.5629885803075965
 30
0.0
  0
VERTEX
  5
EA
  8
0
 62
   250
 10
16.0247962678738887
 20
-41.5629885803075965
 30
0.0
  0
VERTEX
  5
EB
  8
0
 62
   250
 10
16.0662698958739298
 20
-41.4494117183076369
 30
0.0
  0
VERTEX
  5
EC
  8
0
 62
   250
 10
16.452279029873889
 20
-41.0055678003076309
 30
0.0
  0
VERTEX
  5
ED
  8
0
 62
   250
 10
16.9579528978739198
 20
-40.789828836307592
 30
0.0
  0
VERTEX
  5
EE
  8
0
 62
   250
 10
17.1261303618739014
 20
-40.7898288363076134
 30
0.0
  0
VERTEX
  5
EF
  8
0
 62
   250
 10
17.2408486998738901
 20
-40.789828836307592
 30
0.0
  0
VERTEX
  5
F0
  8
0
 62
   250
 10
17.5834817458739003
 20
-40.8828591303076223
 30
0.0
  0
VERTEX
  5
F1
  8
0
 62
   250
 10
17.9559834138739092
 20
-41.1336033583076102
 30
0.0
  0
VERTEX
  5
F2
  8
0
 62
   250
 10
18.2078691178739014
 20
-41.5061050263076083
 30
0.0
  0
VERTEX
  5
F3
  8
0
 62
   250
 10
18.2997579358739415
 20
-41.8489283183075997
 30
0.0
  0
VERTEX
  5
F4
  8
0
 62
   250
 10
18.2997579358739095
 20
-41.9625051803076019
 30
0.0
  0
VERTEX
  5
F5
  8
0
 62
   250
 10
18.2997579358739415
 20
-42.076843026307607
 30
0.0
  0
VERTEX
  5
F6
  8
0
 62
   250
 10
18.2078691178739085
 20
-42.4196663183076197
 30
0.0
  0
VERTEX
  5
F7
  8
0
 62
   250
 10
17.9559834138739092
 20
-42.7921679863076179
 30
0.0
  0
VERTEX
  5
F8
  8
0
 62
   250
 10
17.5834817458739003
 20
-43.0440536903076207
 30
0.0
  0
VERTEX
  5
F9
  8
0
 62
   250
 10
17.2408486998739185
 20
-43.1359425083076005
 30
0.0
  0
VERTEX
  5
FA
  8
0
 62
   250
 10
17.1261303618739191
 20
-43.1359425083076005
 30
0.0
  0
VERTEX
  5
FB
  8
0
 62
   250
 10
16.9579528978738807
 20
-43.1359425083075934
 30
0.0
  0
VERTEX
  5
FC
  8
0
 62
   250
 10
16.452279029873889
 20
-42.9211547743076096
 30
0.0
  0
VERTEX
  5
FD
  8
0
 62
   250
 10
16.0662698958739014
 20
-42.4775011023076132
 30
0.0
  0
VERTEX
  5
FE
  8
0
 62
   250
 10
16.0247962678739206
 20
-42.3627827643076103
 30
0.0
  0
VERTEX
  5
FF
  8
0
 62
   250
 10
8.5747629078739074
 20
-42.3627827643076103
 30
0.0
  0
VERTEX
  5
100
  8
0
 62
   250
 10
8.5996851338739475
 20
-42.4598082243076078
 30
0.0
  0
VERTEX
  5
101
  8
0
 62
   250
 10
8.9495475278739391
 20
-43.4165553583075905
 30
0.0
  0
VERTEX
  5
102
  8
0
 62
   250
 10
8.9938748458738882
 20
-43.5095856523075568
 30
0.0
  0
VERTEX
  5
103
  8
0
 62
   250
 10
9.0041481298738901
 20
-43.5322249263075776
 30
0.0
  0
VERTEX
  5
104
  8
0
 62
   250
 10
9.1331349178739316
 20
-43.9222292263075715
 30
0.0
  0
VERTEX
  5
105
  8
0
 62
   250
 10
9.2065698738738888
 20
-44.1328315483075926
 30
0.0
  0
VERTEX
  5
106
  8
0
 62
   250
 10
10.0394668618739598
 20
-46.3531926143076021
 30
0.0
  0
VERTEX
  5
107
  8
0
 62
   250
 10
10.1271702678739395
 20
-46.5710242843076188
 30
0.0
  0
VERTEX
  5
108
  8
0
 62
   250
 10
13.2492973738738904
 20
-46.5710242843075974
 30
0.0
  0
VERTEX
  5
109
  8
0
 62
   250
 10
13.2907710018739103
 20
-46.4572571763075928
 30
0.0
  0
VERTEX
  5
10A
  8
0
 62
   250
 10
13.6758289058739209
 20
-46.0126522743075981
 30
0.0
  0
VERTEX
  5
10B
  8
0
 62
   250
 10
14.1815027738739303
 20
-45.7967230643075993
 30
0.0
  0
VERTEX
  5
10C
  8
0
 62
   250
 10
14.3494899918739094
 20
-45.7967230643075709
 30
0.0
  0
VERTEX
  5
10D
  8
0
 62
   250
 10
14.4642083298738999
 20
-45.7967230643075993
 30
0.0
  0
VERTEX
  5
10E
  8
0
 62
   250
 10
14.8068413758739101
 20
-45.889753358307587
 30
0.0
  0
VERTEX
  5
10F
  8
0
 62
   250
 10
15.1795332898739392
 20
-46.1416390623076325
 30
0.0
  0
VERTEX
  5
110
  8
0
 62
   250
 10
15.4312287478739307
 20
-46.5141407303076022
 30
0.0
  0
VERTEX
  5
111
  8
0
 62
   250
 10
15.5233078118738899
 20
-46.8567737763076195
 30
0.0
  0
VERTEX
  5
112
  8
0
 62
   250
 10
15.5233078118738899
 20
-46.9705408843076171
 30
0.0
  0
VERTEX
  5
113
  8
0
 62
   250
 10
15.5233078118739396
 20
-47.084878730307608
 30
0.0
  0
VERTEX
  5
114
  8
0
 62
   250
 10
15.4312287478739307
 20
-47.4275117763075968
 30
0.0
  0
VERTEX
  5
115
  8
0
 62
   250
 10
15.1795332898739197
 20
-47.8002036903075975
 30
0.0
  0
VERTEX
  5
116
  8
0
 62
   250
 10
14.8068413758739101
 20
-48.0518991483076121
 30
0.0
  0
VERTEX
  5
117
  8
0
 62
   250
 10
14.4642083298738999
 20
-48.143978212307573
 30
0.0
  0
VERTEX
  5
118
  8
0
 62
   250
 10
14.34948999187392
 20
-48.1439782123076228
 30
0.0
  0
VERTEX
  5
119
  8
0
 62
   250
 10
14.1815027738738806
 20
-48.1439782123075517
 30
0.0
  0
VERTEX
  5
11A
  8
0
 62
   250
 10
13.6758289058738907
 20
-47.9293807243075918
 30
0.0
  0
VERTEX
  5
11B
  8
0
 62
   250
 10
13.2907710018739103
 20
-47.4855368063076213
 30
0.0
  0
VERTEX
  5
11C
  8
0
 62
   250
 10
13.2492973738738993
 20
-47.370818468307597
 30
0.0
  0
VERTEX
  5
11D
  8
0
 62
   250
 10
10.46447642587394
 20
-47.3708184683075828
 30
0.0
  0
VERTEX
  5
11E
  8
0
 62
   250
 10
10.4718960198738902
 20
-47.3873698703076087
 30
0.0
  0
VERTEX
  5
11F
  8
0
 62
   250
 10
10.5401943338739308
 20
-47.5412788843076015
 30
0.0
  0
VERTEX
  5
120
  8
0
 62
   250
 10
10.5462822058739008
 20
-47.5555473343076187
 30
0.0
  0
VERTEX
  5
121
  8
0
 62
   250
 10
10.5738678758738605
 20
-47.6196602363076096
 30
0.0
  0
VERTEX
  5
122
  8
0
 62
   250
 10
10.6804056358739103
 20
-47.8622238863076035
 30
0.0
  0
VERTEX
  5
123
  8
0
 62
   250
 10
10.8683686838739497
 20
-48.289516402307612
 30
0.0
  0
VERTEX
  5
124
  8
0
 62
   250
 10
11.0355949178739099
 20
-48.670198648307597
 30
0.0
  0
VERTEX
  5
125
  8
0
 62
   250
 10
11.1067469218739205
 20
-48.8332394703076034
 30
0.0
  0
VERTEX
  5
126
  8
0
 62
   250
 10
11.1088396278739001
 20
-48.8364736523076104
 30
0.0
  0
VERTEX
  5
127
  8
0
 62
   250
 10
11.2315482978739105
 20
-49.0986326403075992
 30
0.0
  0
VERTEX
  5
128
  8
0
 62
   250
 10
11.5083562278739109
 20
-49.6849708123075828
 30
0.0
  0
VERTEX
  5
129
  8
0
 62
   250
 10
11.8022862978738896
 20
-50.3042215423075874
 30
0.0
  0
VERTEX
  5
12A
  8
0
 62
   250
 10
11.9550538358738994
 20
-50.6232640843075927
 30
0.0
  0
VERTEX
  5
12B
  8
0
 62
   250
 10
11.9799760618738897
 20
-50.6708255843075577
 30
0.0
  0
VERTEX
  5
12C
  8
0
 62
   250
 10
12.0128886198739107
 20
-50.7336067643075879
 30
0.0
  0
VERTEX
  5
12D
  8
0
 62
   250
 10
12.4782303358739206
 20
-51.4890736303076011
 30
0.0
  0
VERTEX
  5
12E
  8
0
 62
   250
 10
12.5392993018738608
 20
-51.5788697423076172
 30
0.0
  0
VERTEX
  5
12F
  8
0
 62
   250
 10
16.2477645798739303
 20
-51.5788697423075888
 30
0.0
  0
VERTEX
  5
130
  8
0
 62
   250
 10
16.2899991918738891
 20
-51.4652928803075866
 30
0.0
  0
VERTEX
  5
131
  8
0
 62
   250
 10
16.6750570958738997
 20
-51.0216392083076116
 30
0.0
  0
VERTEX
  5
132
  8
0
 62
   250
 10
17.1818724398739207
 20
-50.8057099983076128
 30
0.0
  0
VERTEX
  5
133
  8
0
 62
   250
 10
17.3502401498739296
 20
-50.8057099983076128
 30
0.0
  0
VERTEX
  5
134
  8
0
 62
   250
 10
17.4647682418739301
 20
-50.8057099983076128
 30
0.0
  0
VERTEX
  5
135
  8
0
 62
   250
 10
17.80721104187392
 20
-50.8987402923075791
 30
0.0
  0
VERTEX
  5
136
  8
0
 62
   250
 10
18.1800932018739303
 20
-51.1494845203076096
 30
0.0
  0
VERTEX
  5
137
  8
0
 62
   250
 10
18.4319789058739012
 20
-51.522176434307589
 30
0.0
  0
VERTEX
  5
138
  8
0
 62
   250
 10
18.5236774778738784
 20
-51.8648094803076134
 30
0.0
  0
VERTEX
  5
139
  8
0
 62
   250
 10
18.5236774778738784
 20
-51.9783863423075871
 30
0.0
  0
VERTEX
  5
13A
  8
0
 62
   250
 10
18.5236774778738784
 20
-52.0929144343075876
 30
0.0
  0
VERTEX
  5
13B
  8
0
 62
   250
 10
18.431978905873919
 20
-52.4355474803075907
 30
0.0
  0
VERTEX
  5
13C
  8
0
 62
   250
 10
18.1800932018738699
 20
-52.8080491483076173
 30
0.0
  0
VERTEX
  5
13D
  8
0
 62
   250
 10
17.8072110418738987
 20
-53.0601250983075872
 30
0.0
  0
VERTEX
  5
13E
  8
0
 62
   250
 10
17.4647682418738803
 20
-53.1518236703075928
 30
0.0
  0
VERTEX
  5
13F
  8
0
 62
   250
 10
17.3502401498739083
 20
-53.1518236703075928
 30
0.0
  0
VERTEX
  5
140
  8
0
 62
   250
 10
17.18187243987391
 20
-53.1518236703075928
 30
0.0
  0
VERTEX
  5
141
  8
0
 62
   250
 10
16.6750570958738997
 20
-52.9374164283075928
 30
0.0
  0
VERTEX
  5
142
  8
0
 62
   250
 10
16.2899991918738785
 20
-52.4924310343076002
 30
0.0
  0
VERTEX
  5
143
  8
0
 62
   250
 10
16.247764579873909
 20
-52.3777126963076114
 30
0.0
  0
VERTEX
  5
144
  8
0
 62
   250
 10
13.1338180518739307
 20
-52.3777126963076114
 30
0.0
  0
VERTEX
  5
145
  8
0
 62
   250
 10
13.1956480018738898
 20
-52.4543818343075827
 30
0.0
  0
VERTEX
  5
146
  8
0
 62
   250
 10
13.8582748198739001
 20
-53.1891118863075789
 30
0.0
  0
VERTEX
  5
147
  8
0
 62
   250
 10
13.9275243638739195
 20
-53.2591224143075976
 30
0.0
  0
VERTEX
  5
148
  8
0
 62
   250
 10
14.0688771418739105
 20
-53.4008556843076008
 30
0.0
  0
VERTEX
  5
149
  8
0
 62
   250
 10
15.5881816978738907
 20
-54.6391668983075931
 30
0.0
  0
VERTEX
  5
14A
  8
0
 62
   250
 10
15.7481785838738801
 20
-54.7436119523075888
 30
0.0
  0
VERTEX
  5
14B
  8
0
 62
   250
 10
16.2498572858739294
 20
-55.0706448263076069
 30
0.0
  0
VERTEX
  5
14C
  8
0
 62
   250
 10
17.8559140178738787
 20
-55.8944100063076235
 30
0.0
  0
VERTEX
  5
14D
  8
0
 62
   250
 10
20.1029095238738904
 20
-56.7704928363075965
 30
0.0
  0
VERTEX
  5
14E
  8
0
 62
   250
 10
22.43037908787392
 20
-57.4591833563076122
 30
0.0
  0
VERTEX
  5
14F
  8
0
 62
   250
 10
24.189203357873911
 20
-57.9070224403076068
 30
0.0
  0
VERTEX
  5
150
  8
0
 62
   250
 10
24.7764927598739106
 20
-58.0504679243075969
 30
0.0
  0
VERTEX
  5
151
  8
0
 62
   250
 10
24.9901390178739113
 20
-58.1029758203076199
 30
0.0
  0
VERTEX
  5
152
  8
0
 62
   250
 10
27.1452457058739114
 20
-58.6470793803075807
 30
0.0
  0
VERTEX
  5
153
  8
0
 62
   250
 10
27.3567992578738988
 20
-58.7049141643075885
 30
0.0
  0
VERTEX
  5
154
  8
0
 62
   250
 10
28.0721242178739203
 20
-58.8999163143076032
 30
0.0
  0
VERTEX
  5
155
  8
0
 62
   250
 10
31.7651795698739008
 20
-59.7234912483075817
 30
0.0
  0
VERTEX
  5
156
  8
0
 62
   250
 10
35.5025812644739105
 20
-60.3294247583075887
 30
0.0
  0
VERTEX
  5
157
  8
0
 62
   250
 10
36.2395181700739073
 20
-60.4142744743075681
 30
0.0
  0
VERTEX
  5
158
  8
0
 62
   250
 10
36.2797932482739114
 20
-60.419220870307619
 30
0.0
  0
VERTEX
  5
159
  8
0
 62
   250
 10
36.4820818200739225
 20
-60.3552982143076235
 30
0.0
  0
VERTEX
  5
15A
  8
0
 62
   250
 10
36.6038963338738981
 20
-60.222126014307598
 30
0.0
  0
VERTEX
  5
15B
  8
0
 62
   250
 10
36.603896333873891
 20
-60.176657220307618
 30
0.0
  0
VERTEX
  5
15C
  8
0
 62
   250
 10
36.6018036278739132
 20
-50.925564978307591
 30
0.0
  0
VERTEX
  5
15D
  8
0
 62
   250
 10
36.5987216426739224
 20
-50.8367200963076087
 30
0.0
  0
VERTEX
  5
15E
  8
0
 62
   250
 10
36.7576721756739104
 20
-50.5593414283075901
 30
0.0
  0
VERTEX
  5
15F
  8
0
 62
   250
 10
37.115848319873912
 20
-50.1008485683076117
 30
0.0
  0
VERTEX
  5
160
  8
0
 62
   250
 10
37.4791611060739314
 20
-49.7076100863075894
 30
0.0
  0
VERTEX
  5
161
  8
0
 62
   250
 10
37.6473956438739421
 20
-49.5392423763075982
 30
0.0
  0
VERTEX
  5
162
  8
0
 62
   250
 10
37.6494503006739265
 20
-49.5363886863076033
 30
0.0
  0
VERTEX
  5
163
  8
0
 62
   250
 10
37.8920139506739204
 20
-49.3391035843075869
 30
0.0
  0
VERTEX
  5
164
  8
0
 62
   250
 10
40.1658341426738872
 20
-47.2035922343076066
 30
0.0
  0
VERTEX
  5
165
  8
0
 62
   250
 10
40.3774257438738928
 20
-46.9745360503075986
 30
0.0
  0
VERTEX
  5
166
  8
0
 62
   250
 10
40.6561171092739073
 20
-46.6750888463075668
 30
0.0
  0
VERTEX
  5
167
  8
0
 62
   250
 10
41.9566197406739008
 20
-45.1009934423075904
 30
0.0
  0
VERTEX
  5
168
  8
0
 62
   250
 10
43.1312175692739075
 20
-43.4424288143076183
 30
0.0
  0
VERTEX
  5
169
  8
0
 62
   250
 10
43.3448638272739188
 20
-43.0997957683076223
 30
0.0
  0
VERTEX
  5
16A
  8
0
 62
   250
 10
43.3737431700738796
 20
-43.0543269743076067
 30
0.0
  0
VERTEX
  5
16B
  8
0
 62
   250
 10
43.6328201728739131
 20
-42.6281759343076203
 30
0.0
  0
VERTEX
  5
16C
  8
0
 62
   250
 10
43.6565818982739131
 20
-42.5880340283075896
 30
0.0
  0
VERTEX
  5
16D
  8
0
 62
   250
 10
39.3741634628739021
 20
-42.5880340283076322
 30
0.0
  0
VERTEX
  5
16E
  8
0
 62
   250
 10
39.3039817134739096
 20
-42.5880340283075896
 30
0.0
  0
VERTEX
  5
16F
  8
0
 62
   250
 10
39.1099307934739002
 20
-42.4898670923075912
 30
0.0
  0
VERTEX
  5
170
  8
0
 62
   250
 10
39.0913627838739117
 20
-42.4712229843075875
 30
0.0
  0
VERTEX
  5
171
  8
0
 62
   250
 10
36.0877969850739007
 20
-39.4676191363076185
 30
0.0
  0
VERTEX
  5
172
  8
0
 62
   250
 10
36.0496146128739099
 20
-39.4860729983076197
 30
0.0
  0
VERTEX
  5
173
  8
0
 62
   250
 10
35.705916189273907
 20
-39.5781520623076091
 30
0.0
  0
VERTEX
  5
174
  8
0
 62
   250
 10
35.5913310234739129
 20
-39.5781520623076091
 30
0.0
  0
VERTEX
  5
175
  8
0
 62
   250
 10
35.4798658920739101
 20
-39.5781520623076091
 30
0.0
  0
VERTEX
  5
176
  8
0
 62
   250
 10
35.1423504634739103
 20
-39.4904486563076205
 30
0.0
  0
VERTEX
  5
177
  8
0
 62
   250
 10
34.817220049473903
 20
-39.2910708483076334
 30
0.0
  0
VERTEX
  5
178
  8
0
 62
   250
 10
34.7614969960739089
 20
-39.2353287703076177
 30
0.0
  0
VERTEX
  5
179
  8
0
 62
   250
 10
34.7068012710738998
 20
-39.1807281683076383
 30
0.0
  0
VERTEX
  5
17A
  8
0
 62
   250
 10
34.5075946844739008
 20
-38.8567392303076389
 30
0.0
  0
VERTEX
  5
17B
  8
0
 62
   250
 10
34.4188068762738979
 20
-38.5190525803076014
 30
0.0
  0
VERTEX
  5
17C
  8
0
 62
   250
 10
34.4188068762739192
 20
-38.4056659643076088
 30
0.0
  0
VERTEX
  5
17D
  8
0
 62
   250
 10
34.4188068762738979
 20
-38.2941818083075987
 30
0.0
  0
VERTEX
  5
17E
  8
0
 62
   250
 10
34.5075946844739221
 20
-37.9564951583075967
 30
0.0
  0
VERTEX
  5
17F
  8
0
 62
   250
 10
34.7068012710738998
 20
-37.6325062203076186
 30
0.0
  0
VERTEX
  5
180
  8
0
 62
   250
 10
34.7614969960739089
 20
-37.5767641423076384
 30
0.0
  0
VERTEX
  5
181
  8
0
 62
   250
 10
34.817220049473903
 20
-37.5221635403076306
 30
0.0
  0
VERTEX
  5
182
  8
0
 62
   250
 10
35.141323135073911
 20
-37.3229759783076034
 30
0.0
  0
VERTEX
  5
183
  8
0
 62
   250
 10
35.4788385636739108
 20
-37.2341310963076069
 30
0.0
  0
VERTEX
  5
184
  8
0
 62
   250
 10
35.5903036950739065
 20
-37.2341310963076424
 30
0.0
  0
VERTEX
  5
185
  8
0
 62
   250
 10
35.7038425078739081
 20
-37.2341310963076211
 30
0.0
  0
VERTEX
  5
186
  8
0
 62
   250
 10
36.0413579364739221
 20
-37.3229759783076176
 30
0.0
  0
VERTEX
  5
187
  8
0
 62
   250
 10
36.3664883504739223
 20
-37.5221635403076306
 30
0.0
  0
VERTEX
  5
188
  8
0
 62
   250
 10
36.4211840754739029
 20
-37.5767641423076029
 30
0.0
  0
VERTEX
  5
189
  8
0
 62
   250
 10
36.4769261534739115
 20
-37.6325062203076186
 30
0.0
  0
VERTEX
  5
18A
  8
0
 62
   250
 10
36.6761327400739106
 20
-37.9564951583075896
 30
0.0
  0
VERTEX
  5
18B
  8
0
 62
   250
 10
36.7638551706739065
 20
-38.2941818083075987
 30
0.0
  0
VERTEX
  5
18C
  8
0
 62
   250
 10
36.7638551706739065
 20
-38.4056659643076088
 30
0.0
  0
VERTEX
  5
18D
  8
0
 62
   250
 10
36.7638551706739065
 20
-38.5304673403076094
 30
0.0
  0
VERTEX
  5
18E
  8
0
 62
   250
 10
36.6730507548739197
 20
-38.8639685783076203
 30
0.0
  0
VERTEX
  5
18F
  8
0
 62
   250
 10
36.6544637206739026
 20
-38.9020177783076093
 30
0.0
  0
VERTEX
  5
190
  8
0
 62
   250
 10
39.5393160154739221
 20
-41.7890008283076426
 30
0.0
  0
VERTEX
  5
191
  8
0
 62
   250
 10
44.1107181248738911
 20
-41.7890008283075929
 30
0.0
  0
VERTEX
  5
192
  8
0
 62
   250
 10
44.2180739426738825
 20
-41.5928572023076129
 30
0.0
  0
VERTEX
  5
193
  8
0
 62
   250
 10
45.1986037291338931
 20
-39.540863846307623
 30
0.0
  0
VERTEX
  5
194
  8
0
 62
   250
 10
45.2894328769138923
 20
-39.3220809463076293
 30
0.0
  0
VERTEX
  5
195
  8
0
 62
   250
 10
45.3957423417138983
 20
-39.069244012307621
 30
0.0
  0
VERTEX
  5
196
  8
0
 62
   250
 10
46.2441710131539025
 20
-36.5703628023076135
 30
0.0
  0
VERTEX
  5
197
  8
0
 62
   250
 10
46.3091951934938919
 20
-36.3184770983076035
 30
0.0
  0
VERTEX
  5
198
  8
0
 62
   250
 10
42.5170844566738992
 20
-36.3184770983076035
 30
0.0
  0
VERTEX
  5
199
  8
0
 62
   250
 10
42.4468836826738993
 20
-36.3184770983076035
 30
0.0
  0
VERTEX
  5
19A
  8
0
 62
   250
 10
42.2528517872738973
 20
-36.2205004083076076
 30
0.0
  0
VERTEX
  5
19B
  8
0
 62
   250
 10
42.2342457284739083
 20
-36.2020465463076491
 30
0.0
  0
VERTEX
  5
19C
  8
0
 62
   250
 10
39.2317453072739113
 20
-33.1993939283076003
 30
0.0
  0
VERTEX
  5
19D
  8
0
 62
   250
 10
39.1935439104739203
 20
-33.2180380363075898
 30
0.0
  0
VERTEX
  5
19E
  8
0
 62
   250
 10
38.8487991338739107
 20
-33.3099268543076334
 30
0.0
  0
VERTEX
  5
19F
  8
0
 62
   250
 10
38.7332056642739104
 20
-33.3099268543076334
 30
0.0
  0
VERTEX
  5
1A0
  8
0
 62
   250
 10
38.6217405328739076
 20
-33.3099268543076334
 30
0.0
  0
VERTEX
  5
1A1
  8
0
 62
   250
 10
38.2852524326739072
 20
-33.2222234483076235
 30
0.0
  0
VERTEX
  5
1A2
  8
0
 62
   250
 10
37.9601410432739428
 20
-33.0218944103076382
 30
0.0
  0
VERTEX
  5
1A3
  8
0
 62
   250
 10
37.904379940673941
 20
-32.9661523323076224
 30
0.0
  0
VERTEX
  5
1A4
  8
0
 62
   250
 10
37.8496842156739319
 20
-32.9115517303075791
 30
0.0
  0
VERTEX
  5
1A5
  8
0
 62
   250
 10
37.650496653673919
 20
-32.5883237763076181
 30
0.0
  0
VERTEX
  5
1A6
  8
0
 62
   250
 10
37.5617278700739234
 20
-32.2508273723076613
 30
0.0
  0
VERTEX
  5
1A7
  8
0
 62
   250
 10
37.5617278700739234
 20
-32.1372505103076378
 30
0.0
  0
VERTEX
  5
1A8
  8
0
 62
   250
 10
37.5617278700739234
 20
-32.024815124307608
 30
0.0
  0
VERTEX
  5
1A9
  8
0
 62
   250
 10
37.650496653673919
 20
-31.6873187203075801
 30
0.0
  0
VERTEX
  5
1AA
  8
0
 62
   250
 10
37.8496842156739319
 20
-31.3631395363076493
 30
0.0
  0
VERTEX
  5
1AB
  8
0
 62
   250
 10
37.9043799406739197
 20
-31.3075877043076609
 30
0.0
  0
VERTEX
  5
1AC
  8
0
 62
   250
 10
37.9601410432739428
 20
-31.2527968563076186
 30
0.0
  0
VERTEX
  5
1AD
  8
0
 62
   250
 10
38.2842251042739221
 20
-31.0536092943076305
 30
0.0
  0
VERTEX
  5
1AE
  8
0
 62
   250
 10
38.6217405328739076
 20
-30.9647644123076304
 30
0.0
  0
VERTEX
  5
1AF
  8
0
 62
   250
 10
38.7332056642739104
 20
-30.9647644123076518
 30
0.0
  0
VERTEX
  5
1B0
  8
0
 62
   250
 10
38.8467444770739334
 20
-30.9647644123076695
 30
0.0
  0
VERTEX
  5
1B1
  8
0
 62
   250
 10
39.1853062586739114
 20
-31.0536092943076305
 30
0.0
  0
VERTEX
  5
1B2
  8
0
 62
   250
 10
39.5093712950739118
 20
-31.2527968563076186
 30
0.0
  0
VERTEX
  5
1B3
  8
0
 62
   250
 10
39.5641050692739213
 20
-31.3075877043076609
 30
0.0
  0
VERTEX
  5
1B4
  8
0
 62
   250
 10
39.6518274998738889
 20
-31.3952911103076104
 30
0.0
  0
VERTEX
  5
1B5
  8
0
 62
   250
 10
39.8892164586739
 20
-31.9380629483076284
 30
0.0
  0
VERTEX
  5
1B6
  8
0
 62
   250
 10
39.847933076673911
 20
-32.5244011203076298
 30
0.0
  0
VERTEX
  5
1B7
  8
0
 62
   250
 10
39.7963383614739001
 20
-32.6337925703075769
 30
0.0
  0
VERTEX
  5
1B8
  8
0
 62
   250
 10
42.6822370092738979
 20
-35.5186829143076324
 30
0.0
  0
VERTEX
  5
1B9
  8
0
 62
   250
 10
46.4898242581938916
 20
-35.5186829143076324
 30
0.0
  0
VERTEX
  5
1BA
  8
0
 62
   250
 10
46.5785892368738885
 20
-34.9395740903076231
 30
0.0
  0
VERTEX
  5
1BB
  8
0
 62
   250
 10
46.8696547728519377
 20
-32.3438576663076418
 30
0.0
  0
VERTEX
  5
1BC
  8
0
 62
   250
 10
46.9697733284182988
 20
-30.0688959983076387
 30
0.0
  0
VERTEX
  5
1BD
  8
0
 62
   250
 10
46.9615161193295023
 20
-29.6497840603075886
 30
0.0
  0
VERTEX
  5
1BE
  8
0
 62
   250
 10
44.7940056584739068
 20
-29.6497840603076099
 30
0.0
  0
VERTEX
  5
1BF
  8
0
 62
   250
 10
44.7743912958738903
 20
-29.6497840603076099
 30
0.0
  0
VERTEX
  5
1C0
  8
0
 62
   250
 10
44.7217502276738799
 20
-29.6436961883076009
 30
0.0
  0
VERTEX
  5
1C1
  8
0
 62
   250
 10
44.7145208796738771
 20
-29.6416034823075911
 30
0.0
  0
VERTEX
  5
1C2
  8
0
 62
   250
 10
44.7083378846739024
 20
-29.6406522523075893
 30
0.0
  0
VERTEX
  5
1C3
  8
0
 62
   250
 10
44.6443391302739201
 20
-29.6210569143076086
 30
0.0
  0
VERTEX
  5
1C4
  8
0
 62
   250
 10
44.6381371106738882
 20
-29.6178227323076015
 30
0.0
  0
VERTEX
  5
1C5
  8
0
 62
   250
 10
44.6267984490739167
 20
-29.6136373203075891
 30
0.0
  0
VERTEX
  5
1C6
  8
0
 62
   250
 10
44.5194426312739111
 20
-29.541534086307589
 30
0.0
  0
VERTEX
  5
1C7
  8
0
 62
   250
 10
44.5101586264739026
 20
-29.5322120323075907
 30
0.0
  0
VERTEX
  5
1C8
  8
0
 62
   250
 10
41.5086665090738904
 20
-26.5307199149076709
 30
0.0
  0
VERTEX
  5
1C9
  8
0
 62
   250
 10
41.4704651122739065
 20
-26.5492879245076594
 30
0.0
  0
VERTEX
  5
1CA
  8
0
 62
   250
 10
41.1267476640739034
 20
-26.6410435703076587
 30
0.0
  0
VERTEX
  5
1CB
  8
0
 62
   250
 10
41.0121815228739024
 20
-26.6410435703076587
 30
0.0
  0
VERTEX
  5
1CC
  8
0
 62
   250
 10
40.9007354160739283
 20
-26.6410435703075983
 30
0.0
  0
VERTEX
  5
1CD
  8
0
 62
   250
 10
40.5642282912739134
 20
-26.5523699097076182
 30
0.0
  0
VERTEX
  5
1CE
  8
0
 62
   250
 10
40.2391359264738995
 20
-26.3521359947076306
 30
0.0
  0
VERTEX
  5
1CF
  8
0
 62
   250
 10
40.1833748238738977
 20
-26.2963939167076184
 30
0.0
  0
VERTEX
  5
1D0
  8
0
 62
   250
 10
40.1286790988739099
 20
-26.2416981917075809
 30
0.0
  0
VERTEX
  5
1D1
  8
0
 62
   250
 10
39.9294725122739109
 20
-25.9155214247076415
 30
0.0
  0
VERTEX
  5
1D2
  8
0
 62
   250
 10
39.8386300472739023
 20
-25.5800987021076196
 30
0.0
  0
VERTEX
  5
1D3
  8
0
 62
   250
 10
39.8386300472739023
 20
-25.4675872177075817
 30
0.0
  0
VERTEX
  5
1D4
  8
0
 62
   250
 10
39.8386300472739023
 20
-25.3561030617076284
 30
0.0
  0
VERTEX
  5
1D5
  8
0
 62
   250
 10
39.9284451838739116
 20
-25.0206613145075885
 30
0.0
  0
VERTEX
  5
1D6
  8
0
 62
   250
 10
40.1276517704739035
 20
-24.6944845475076313
 30
0.0
  0
VERTEX
  5
1D7
  8
0
 62
   250
 10
40.1823474954738984
 20
-24.6387614941076407
 30
0.0
  0
VERTEX
  5
1D8
  8
0
 62
   250
 10
40.2380895734738999
 20
-24.584065769107589
 30
0.0
  0
VERTEX
  5
1D9
  8
0
 62
   250
 10
40.5621736344739006
 20
-24.3848782071075902
 30
0.0
  0
VERTEX
  5
1DA
  8
0
 62
   250
 10
40.8997080876738934
 20
-24.29609039890763
 30
0.0
  0
VERTEX
  5
1DB
  8
0
 62
   250
 10
41.0121815228739024
 20
-24.2960903989076407
 30
0.0
  0
VERTEX
  5
1DC
  8
0
 62
   250
 10
41.1246930072739119
 20
-24.29609039890763
 30
0.0
  0
VERTEX
  5
1DD
  8
0
 62
   250
 10
41.4622274604739118
 20
-24.3848782071076116
 30
0.0
  0
VERTEX
  5
1DE
  8
0
 62
   250
 10
41.7863115214739125
 20
-24.584065769107589
 30
0.0
  0
VERTEX
  5
1DF
  8
0
 62
   250
 10
41.8410262710739218
 20
-24.6387614941076407
 30
0.0
  0
VERTEX
  5
1E0
  8
0
 62
   250
 10
41.9297760300738886
 20
-24.7275302777076114
 30
0.0
  0
VERTEX
  5
1E1
  8
0
 62
   250
 10
42.1671649888738997
 20
-25.2694079595076495
 30
0.0
  0
VERTEX
  5
1E2
  8
0
 62
   250
 10
42.1259006314738969
 20
-25.8546427047075902
 30
0.0
  0
VERTEX
  5
1E3
  8
0
 62
   250
 10
42.0742868916738999
 20
-25.9640341547075906
 30
0.0
  0
VERTEX
  5
1E4
  8
0
 62
   250
 10
44.959139186473891
 20
-28.849989876307621
 30
0.0
  0
VERTEX
  5
1E5
  8
0
 62
   250
 10
46.9243586784298969
 20
-28.849989876307621
 30
0.0
  0
VERTEX
  5
1E6
  8
0
 62
   250
 10
46.8510759192299133
 20
-28.3483111743076108
 30
0.0
  0
VERTEX
  5
1E7
  8
0
 62
   250
 10
46.3122923983738914
 20
-25.7586635977076703
 30
0.0
  0
VERTEX
  5
1E8
  8
0
 62
   250
 10
45.569143960873923
 20
-23.1421342613076604
 30
0.0
  0
VERTEX
  5
1E9
  8
0
 62
   250
 10
45.3926451368339201
 20
-22.6250456333076286
 30
0.0
  0
VERTEX
  5
1EA
  8
0
 62
   250
 10
45.3833573271138917
 20
-22.5971555697076099
 30
0.0
  0
VERTEX
  5
1EB
  8
0
 62
   250
 10
45.3823242913339087
 20
-22.5930462561076517
 30
0.0
  0
VERTEX
  5
1EC
  8
0
 62
   250
 10
45.365810938533933
 20
-22.5486428397076111
 30
0.0
  0
VERTEX
  5
1ED
  8
0
 62
   250
 10
45.3637467694338881
 20
-22.543506197707579
 30
0.0
  0
VERTEX
  5
1EE
  8
0
 62
   250
 10
45.1686704234939
 20
-22.0387835597076212
 30
0.0
  0
VERTEX
  5
1EF
  8
0
 62
   250
 10
44.1200211542739211
 20
-19.4966023601076408
 30
0.0
  0
VERTEX
  5
1F0
  8
0
 62
   250
 10
42.839094836273901
 20
-17.0307859049076491
 30
0.0
  0
VERTEX
  5
1F1
  8
0
 62
   250
 10
42.5263684614739006
 20
-16.5632183107076401
 30
0.0
  0
VERTEX
  5
1F2
  8
0
 62
   250
 10
42.5129370938739086
 20
-16.5425766197076101
 30
0.0
  0
VERTEX
  5
1F3
  8
0
 62
   250
 10
42.3715462666738887
 20
-16.3330586999075997
 30
0.0
  0
VERTEX
  5
1F4
  8
0
 62
   250
 10
42.3570875706738903
 20
-16.3113896805076415
 30
0.0
  0
VERTEX
  5
1F5
  8
0
 62
   250
 10
41.9328770398739081
 20
-15.6765958523075906
 30
0.0
  0
VERTEX
  5
1F6
  8
0
 62
   250
 10
40.5002485614739172
 20
-13.8765262495076396
 30
0.0
  0
VERTEX
  5
1F7
  8
0
 62
   250
 10
38.4225339462739086
 20
-11.7647385757076606
 30
0.0
  0
VERTEX
  5
1F8
  8
0
 62
   250
 10
36.1982538126739115
 20
-10.0451810801076409
 30
0.0
  0
VERTEX
  5
1F9
  8
0
 62
   250
 10
34.5003653364739122
 20
-9.0440038952675827
 30
0.0
  0
VERTEX
  5
1FA
  8
0
 62
   250
 10
33.902745576673901
 20
-8.7818372974276215
 30
0.0
  0
VERTEX
  5
1FB
  8
0
 62
   250
 10
33.7861247786739227
 20
-8.7302311674675792
 30
0.0
  0
VERTEX
  5
1FC
  8
0
 62
   250
 10
33.405252286673921
 20
-8.5785042750877061
 30
0.0
  0
VERTEX
  5
1FD
  8
0
 62
   250
 10
32.6373243076739215
 20
-8.3080810008475936
 30
0.0
  0
VERTEX
  5
1FE
  8
0
 62
   250
 10
31.6330537228738997
 20
-8.0201113380275935
 30
0.0
  0
VERTEX
  5
1FF
  8
0
 62
   250
 10
30.7288905832739196
 20
-7.8147122441276897
 30
0.0
  0
VERTEX
  5
200
  8
0
 62
   250
 10
30.4243828356739208
 20
-7.7610411840836226
 30
0.0
  0
VERTEX
  5
201
  8
0
 62
   250
 10
30.2716343222739113
 20
-7.7342052735695779
 30
0.0
  0
VERTEX
  5
202
  8
0
 62
   250
 10
29.0248191120738994
 20
-7.5958970023076322
 30
0.0
  0
VERTEX
  5
203
  8
0
 62
   250
 10
28.6088272084739188
 20
-7.5958970023075958
 30
0.0
  0
VERTEX
  5
204
  8
0
 62
   250
 10
27.9472277188739007
 20
-7.5958970023075958
 30
0.0
  0
VERTEX
  5
205
  8
0
 62
   250
 10
25.960393617873919
 20
-7.9251519495876357
 30
0.0
  0
VERTEX
  5
206
  8
0
 62
   250
 10
23.6989394158739408
 20
-8.6125659189275972
 30
0.0
  0
VERTEX
  5
207
  8
0
 62
   250
 10
23.2159048218739308
 20
-8.7911289120675722
 30
0.0
  0
VERTEX
  5
208
  8
0
 62
   250
 10
22.6894941398739114
 20
-9.0615521863075976
 30
0.0
  0
VERTEX
  5
209
  8
0
 62
   250
 10
21.1814140978739083
 20
-10.0152553843076202
 30
0.0
  0
VERTEX
  5
20A
  8
0
 62
   250
 10
19.4113653138739117
 20
-11.4520312255075893
 30
0.0
  0
VERTEX
  5
20B
  8
0
 62
   250
 10
17.9601688258739287
 20
-13.0497742073075607
 30
0.0
  0
VERTEX
  5
20C
  8
0
 62
   250
 10
17.1076764998739215
 20
-14.3069387999076092
 30
0.0
  0
VERTEX
  5
20D
  8
0
 62
   250
 10
16.8824252358738889
 20
-14.7559383845076102
 30
0.0
  0
VERTEX
  5
20E
  8
0
 62
   250
 10
16.7503945118738713
 20
-15.0222257107076
 30
0.0
  0
VERTEX
  5
20F
  8
0
 62
   250
 10
16.2260765358739114
 20
-16.3764157633075698
 30
0.0
  0
VERTEX
  5
210
  8
0
 62
   250
 10
15.9018973518738793
 20
-17.7233574433076093
 30
0.0
  0
VERTEX
  5
211
  8
0
 62
   250
 10
15.8687945478739199
 20
-17.9855164313076088
 30
0.0
  0
VERTEX
  5
212
  8
0
 62
   250
 10
15.8568090498739007
 20
-18.0846155727075804
 30
0.0
  0
VERTEX
  5
213
  8
0
 62
   250
 10
15.8246574758738792
 20
-18.3829022761075898
 30
0.0
  0
VERTEX
  5
214
  8
0
 62
   250
 10
15.7906034418739001
 20
-18.96193500170763
 30
0.0
  0
VERTEX
  5
215
  8
0
 62
   250
 10
15.8008767258738896
 20
-19.703019270107621
 30
0.0
  0
VERTEX
  5
216
  8
0
 62
   250
 10
15.8585212638739304
 20
-20.3677197695076515
 30
0.0
  0
VERTEX
  5
217
  8
0
 62
   250
 10
15.89162406787392
 20
-20.5865597433075784
 30
0.0
  0
VERTEX
  5
218
  8
0
 62
   250
 10
15.8948582498739199
 20
-20.6020457677076614
 30
0.0
  0
VERTEX
  5
219
  8
0
 62
   250
 10
15.8990436618739199
 20
-20.6288514291076197
 30
0.0
  0
VERTEX
  5
21A
  8
0
 62
   250
 10
15.9424197498739098
 20
-20.8961851083075913
 30
0.0
  0
VERTEX
  5
21B
  8
0
 62
   250
 10
15.9462246698739403
 20
-20.9230288189075786
 30
0.0
  0
VERTEX
  5
21C
  8
0
 62
   250
 10
15.9711468958739307
 20
-21.0602913079076295
 30
0.0
  0
VERTEX
  5
21D
  8
0
 62
   250
 10
16.2879064858739113
 20
-22.350482606107601
 30
0.0
  0
VERTEX
  5
21E
  8
0
 62
   250
 10
16.3263361778738911
 20
-22.4691961101075783
 30
0.0
  0
VERTEX
  5
21F
  8
0
 62
   250
 10
16.42963975587395
 20
-22.7870971761076611
 30
0.0
  0
VERTEX
  5
220
  8
0
 62
   250
 10
17.1004471518738903
 20
-24.2661456785076091
 30
0.0
  0
VERTEX
  5
221
  8
0
 62
   250
 10
17.9755787518739005
 20
-25.5935110451076007
 30
0.0
  0
VERTEX
  5
222
  8
0
 62
   250
 10
18.1800932018739303
 20
-25.8339819891076097
 30
0.0
  0
VERTEX
  5
223
  8
0
 62
   250
 10
18.1964543578738898
 20
-25.85361537630763
 30
0.0
  0
VERTEX
  5
224
  8
0
 62
   250
 10
18.3669147738739014
 20
-26.0373359385076384
 30
0.0
  0
VERTEX
  5
225
  8
0
 62
   250
 10
18.383275929873939
 20
-26.0548766197076205
 30
0.0
  0
VERTEX
  5
226
  8
0
 62
   250
 10
18.4038224978739215
 20
-26.076545639107561
 30
0.0
  0
VERTEX
  5
227
  8
0
 62
   250
 10
18.411242091873909
 20
-26.0837940117075995
 30
0.0
  0
VERTEX
  5
228
  8
0
 62
   250
 10
18.4782086838738984
 20
-26.1529484327075785
 30
0.0
  0
VERTEX
  5
229
  8
0
 62
   250
 10
18.4844868018738602
 20
-26.1591314277076492
 30
0.0
  0
VERTEX
  5
22A
  8
0
 62
   250
 10
18.5836049678739386
 20
-26.2571842161076283
 30
0.0
  0
VERTEX
  5
22B
  8
0
 62
   250
 10
19.1284695118738917
 20
-26.7814451183075306
 30
0.0
  0
VERTEX
  5
22C
  8
0
 62
   250
 10
19.5900063078739315
 20
-27.2005570563075914
 30
0.0
  0
VERTEX
  5
22D
  8
0
 62
   250
 10
19.6465093698739395
 20
-27.2448843743075706
 30
0.0
  0
VERTEX
  5
22E
  8
0
 62
   250
 10
19.7985159238739001
 20
-27.3635978783075515
 30
0.0
  0
VERTEX
  5
22F
  8
0
 62
   250
 10
21.4043824098738895
 20
-28.3401305963076311
 30
0.0
  0
VERTEX
  5
230
  8
0
 62
   250
 10
21.5727501198739091
 20
-28.4164192423076685
 30
0.0
  0
VERTEX
  5
231
  8
0
 62
   250
 10
21.5974820998739183
 20
-28.4278340023075415
 30
0.0
  0
VERTEX
  5
232
  8
0
 62
   250
 10
21.8430896858738883
 20
-28.5320888103076484
 30
0.0
  0
VERTEX
  5
233
  8
0
 62
   250
 10
21.8678216658739011
 20
-28.541410864307629
 30
0.0
  0
VERTEX
  5
234
  8
0
 62
   250
 10
21.9184271018739096
 20
-28.5630989083076017
 30
0.0
  0
VERTEX
  5
235
  8
0
 62
   250
 10
22.4520671318739318
 20
-28.7539156463076218
 30
0.0
  0
VERTEX
  5
236
  8
0
 62
   250
 10
22.5057165038738916
 20
-28.7704670483076406
 30
0.0
  0
VERTEX
  5
237
  8
0
 62
   250
 10
22.5325411898739283
 20
-28.7797891023076389
 30
0.0
  0
VERTEX
  5
238
  8
0
 62
   250
 10
22.7648315558739291
 20
-28.8427605283075792
 30
0.0
  0
VERTEX
  5
239
  8
0
 62
   250
 10
22.7844268938739098
 20
-28.8458044643076406
 30
0.0
  0
VERTEX
  5
23A
  8
0
 62
   250
 10
22.8082076438739207
 20
-28.8520825823076201
 30
0.0
  0
VERTEX
  5
23B
  8
0
 62
   250
 10
22.8122028098738987
 20
-28.8530338123075687
 30
0.0
  0
VERTEX
  5
23C
  8
0
 62
   250
 10
22.8473983198739106
 20
-28.8623558663075883
 30
0.0
  0
VERTEX
  5
23D
  8
0
 62
   250
 10
22.8504422558739186
 20
-28.8633070963076008
 30
0.0
  0
VERTEX
  5
23E
  8
0
 62
   250
 10
22.8628082458739108
 20
-28.8684437383075903
 30
0.0
  0
VERTEX
  5
23F
  8
0
 62
   250
 10
22.9866583918739096
 20
-28.9005953123076011
 30
0.0
  0
VERTEX
  5
240
  8
0
 62
   250
 10
22.9980731518738999
 20
-28.9024977723076084
 30
0.0
  0
VERTEX
  5
241
  8
0
 62
   250
 10
23.0197611958738904
 20
-28.9087758903076306
 30
0.0
  0
VERTEX
  5
242
  8
0
 62
   250
 10
23.0239466078738992
 20
-28.9097271203076396
 30
0.0
  0
VERTEX
  5
243
  8
0
 62
   250
 10
23.0528639998739102
 20
-28.9180979443075685
 30
0.0
  0
VERTEX
  5
244
  8
0
 62
   250
 10
23.0547664598738997
 20
-28.9190491743076414
 30
0.0
  0
VERTEX
  5
245
  8
0
 62
   250
 10
23.0796886858739185
 20
-28.9274199983076805
 30
0.0
  0
VERTEX
  5
246
  8
0
 62
   250
 10
23.0857765578739205
 20
-28.9295127043075517
 30
0.0
  0
VERTEX
  5
247
  8
0
 62
   250
 10
23.1415186358739007
 20
-28.9470153363076399
 30
0.0
  0
VERTEX
  5
248
  8
0
 62
   250
 10
23.1477967538739087
 20
-28.9479665663076311
 30
0.0
  0
VERTEX
  5
249
  8
0
 62
   250
 10
23.3614430118739094
 20
-28.9924841303075809
 30
0.0
  0
VERTEX
  5
24A
  8
0
 62
   250
 10
23.3747602318739212
 20
-28.9955280663076493
 30
0.0
  0
VERTEX
  5
24B
  8
0
 62
   250
 10
23.5058397258739404
 20
-29.0191185703075902
 30
0.0
  0
VERTEX
  5
24C
  8
0
 62
   250
 10
23.5182057158739006
 20
-29.0212112763076
 30
0.0
  0
VERTEX
  5
24D
  8
0
 62
   250
 10
23.5326644118739203
 20
-29.024445458307639
 30
0.0
  0
VERTEX
  5
24E
  8
0
 62
   250
 10
23.6721147298739183
 20
-29.0501286683075612
 30
0.0
  0
VERTEX
  5
24F
  8
0
 62
   250
 10
23.6854319498739194
 20
-29.0522213743076314
 30
0.0
  0
VERTEX
  5
250
  8
0
 62
   250
 10
23.7092126998739197
 20
-29.0573580163076208
 30
0.0
  0
VERTEX
  5
251
  8
0
 62
   250
 10
23.7288080378739217
 20
-29.061543428307651
 30
0.0
  0
VERTEX
  5
252
  8
0
 62
   250
 10
23.9424542958739117
 20
-29.0862754083076602
 30
0.0
  0
VERTEX
  5
253
  8
0
 62
   250
 10
23.9641423398738986
 20
-29.0883681143075989
 30
0.0
  0
VERTEX
  5
254
  8
0
 62
   250
 10
24.0569823878739193
 20
-29.0965486923076284
 30
0.0
  0
VERTEX
  5
255
  8
0
 62
   250
 10
24.0994072458739197
 20
-29.1007341043076089
 30
0.0
  0
VERTEX
  5
256
  8
0
 62
   250
 10
24.4854163798739002
 20
-29.1347881383075809
 30
0.0
  0
VERTEX
  5
257
  8
0
 62
   250
 10
24.5236558258739201
 20
-29.1359296143075888
 30
0.0
  0
VERTEX
  5
258
  8
0
 62
   250
 10
24.6288618638739116
 20
-29.1420174863076014
 30
0.0
  0
VERTEX
  5
259
  8
0
 62
   250
 10
25.5237790478739015
 20
-29.1296514963076412
 30
0.0
  0
VERTEX
  5
25A
  8
0
 62
   250
 10
25.5991164638739193
 20
-29.1214709183076117
 30
0.0
  0
VERTEX
  5
25B
  8
0
 62
   250
 10
25.6434437818738985
 20
-29.1203294423076109
 30
0.0
  0
VERTEX
  5
25C
  8
0
 62
   250
 10
26.1068830378739101
 20
-29.07086548230766
 30
0.0
  0
VERTEX
  5
25D
  8
0
 62
   250
 10
26.1605324098739089
 20
-29.0624946583076813
 30
0.0
  0
VERTEX
  5
25E
  8
0
 62
   250
 10
26.1854546358738993
 20
-29.0594507223075809
 30
0.0
  0
VERTEX
  5
25F
  8
0
 62
   250
 10
26.4278280398739085
 20
-29.00998676230763
 30
0.0
  0
VERTEX
  5
260
  8
0
 62
   250
 10
26.4516087898739016
 20
-29.0037086443076184
 30
0.0
  0
VERTEX
  5
261
  8
0
 62
   250
 10
26.5754589358739004
 20
-28.9768839583076208
 30
0.0
  0
VERTEX
  5
262
  8
0
 62
   250
 10
26.6085617398739096
 20
-28.9706058403075914
 30
0.0
  0
VERTEX
  5
263
  8
0
 62
   250
 10
26.958424133873919
 20
-28.8880390763075603
 30
0.0
  0
VERTEX
  5
264
  8
0
 62
   250
 10
26.9924781678739016
 20
-28.8777657923075886
 30
0.0
  0
VERTEX
  5
265
  8
0
 62
   250
 10
27.0307176138739109
 20
-28.8684437383075903
 30
0.0
  0
VERTEX
  5
266
  8
0
 62
   250
 10
27.3868581258739106
 20
-28.772559754307629
 30
0.0
  0
VERTEX
  5
267
  8
0
 62
   250
 10
27.4197706838739208
 20
-28.7622864703075685
 30
0.0
  0
VERTEX
  5
268
  8
0
 62
   250
 10
27.4363220858739005
 20
-28.7581010583075916
 30
0.0
  0
VERTEX
  5
269
  8
0
 62
   250
 10
27.594226265873921
 20
-28.7074956223076008
 30
0.0
  0
VERTEX
  5
26A
  8
0
 62
   250
 10
27.6096361918739213
 20
-28.7023589803075794
 30
0.0
  0
VERTEX
  5
26B
  8
0
 62
   250
 10
27.64064628987391
 20
-28.6930369263075811
 30
0.0
  0
VERTEX
  5
26C
  8
0
 62
   250
 10
27.9296299638739214
 20
-28.5733721923075912
 30
0.0
  0
VERTEX
  5
26D
  8
0
 62
   250
 10
27.9575580766739087
 20
-28.561006202307631
 30
0.0
  0
VERTEX
  5
26E
  8
0
 62
   250
 10
27.9967677772739201
 20
-28.5444548003075802
 30
0.0
  0
VERTEX
  5
26F
  8
0
 62
   250
 10
28.3569985782738989
 20
-28.4061459583075901
 30
0.0
  0
VERTEX
  5
270
  8
0
 62
   250
 10
28.3900252838739107
 20
-28.3989166103076016
 30
0.0
  0
VERTEX
  5
271
  8
0
 62
   250
 10
28.3910526122739206
 20
-28.3979653803076104
 30
0.0
  0
VERTEX
  5
272
  8
0
 62
   250
 10
28.4261529992739312
 20
-28.3823652083076716
 30
0.0
  0
VERTEX
  5
273
  8
0
 62
   250
 10
28.4303003620739112
 20
-28.3802725023076583
 30
0.0
  0
VERTEX
  5
274
  8
0
 62
   250
 10
28.7616137710739288
 20
-28.2235097983075995
 30
0.0
  0
VERTEX
  5
275
  8
0
 62
   250
 10
30.1900948866739114
 20
-27.2985337463076085
 30
0.0
  0
VERTEX
  5
276
  8
0
 62
   250
 10
31.3120516470739183
 20
-26.19731379990764
 30
0.0
  0
VERTEX
  5
277
  8
0
 62
   250
 10
31.4885428612739311
 20
-25.9516681647075984
 30
0.0
  0
VERTEX
  5
278
  8
0
 62
   250
 10
31.5215885914739111
 20
-25.9072837729076006
 30
0.0
  0
VERTEX
  5
279
  8
0
 62
   250
 10
31.8115995938739111
 20
-25.4706692029075796
 30
0.0
  0
VERTEX
  5
27A
  8
0
 62
   250
 10
31.8343149662739187
 20
-25.4273311641076205
 30
0.0
  0
VERTEX
  5
27B
  8
0
 62
   250
 10
31.8374159760739097
 20
-25.4232218505076197
 30
0.0
  0
VERTEX
  5
27C
  8
0
 62
   250
 10
31.8601123238739206
 20
-25.3901951449076613
 30
0.0
  0
VERTEX
  5
27D
  8
0
 62
   250
 10
31.8611396522739092
 20
-25.3870751105076096
 30
0.0
  0
VERTEX
  5
27E
  8
0
 62
   250
 10
31.8745710198739083
 20
-25.3684880763076315
 30
0.0
  0
VERTEX
  5
27F
  8
0
 62
   250
 10
31.9757057934739208
 20
-25.2012808669075987
 30
0.0
  0
VERTEX
  5
280
  8
0
 62
   250
 10
31.9819268376739103
 20
-25.1857948425076117
 30
0.0
  0
VERTEX
  5
281
  8
0
 62
   250
 10
31.9850088228739189
 20
-25.1796118475076014
 30
0.0
  0
VERTEX
  5
282
  8
0
 62
   250
 10
32.0262922048739114
 20
-25.1115037795075793
 30
0.0
  0
VERTEX
  5
283
  8
0
 62
   250
 10
32.0304395676739091
 20
-25.1042554069076616
 30
0.0
  0
VERTEX
  5
284
  8
0
 62
   250
 10
32.0448602144739212
 20
-25.0846600689075991
 30
0.0
  0
VERTEX
  5
285
  8
0
 62
   250
 10
32.1821607526739228
 20
-24.8617298061076006
 30
0.0
  0
VERTEX
  5
286
  8
0
 62
   250
 10
32.1945457672739082
 20
-24.8369407523075694
 30
0.0
  0
VERTEX
  5
287
  8
0
 62
   250
 10
32.204857100473923
 20
-24.8173263897076311
 30
0.0
  0
VERTEX
  5
288
  8
0
 62
   250
 10
32.2182694434739076
 20
-24.7915290321076114
 30
0.0
  0
VERTEX
  5
289
  8
0
 62
   250
 10
32.3524499472739109
 20
-24.5231680245076511
 30
0.0
  0
VERTEX
  5
28A
  8
0
 62
   250
 10
32.3658813148739029
 20
-24.4952969855076184
 30
0.0
  0
VERTEX
  5
28B
  8
0
 62
   250
 10
32.3772390010739102
 20
-24.4746552945076097
 30
0.0
  0
VERTEX
  5
28C
  8
0
 62
   250
 10
32.4814747844739173
 20
-24.2672110561076195
 30
0.0
  0
VERTEX
  5
28D
  8
0
 62
   250
 10
32.4918051422739111
 20
-24.2455230121076006
 30
0.0
  0
VERTEX
  5
28E
  8
0
 62
   250
 10
32.4938597990739169
 20
-24.2372663357076199
 30
0.0
  0
VERTEX
  5
28F
  8
0
 62
   250
 10
32.7333224392739126
 20
-23.6138492183076494
 30
0.0
  0
VERTEX
  5
290
  8
0
 62
   250
 10
32.767376473273913
 20
-23.5178510867075694
 30
0.0
  0
VERTEX
  5
291
  8
0
 62
   250
 10
33.0243988192739124
 20
-22.4309947133075696
 30
0.0
  0
VERTEX
  5
292
  8
0
 62
   250
 10
33.0398848436739172
 20
-22.3153822191075903
 30
0.0
  0
VERTEX
  5
293
  8
0
 62
   250
 10
33.0708378678739123
 20
-22.0955529661076007
 30
0.0
  0
VERTEX
  5
294
  8
0
 62
   250
 10
33.081149201073913
 20
-20.9839265635076089
 30
0.0
  0
VERTEX
  5
295
  8
0
 62
   250
 10
32.9046770114739218
 20
-19.8908871951075916
 30
0.0
  0
VERTEX
  5
296
  8
0
 62
   250
 10
32.8417055854739104
 20
-19.6803229223076208
 30
0.0
  0
VERTEX
  5
297
  8
0
 62
   250
 10
32.7632481350739084
 20
-19.4171175813076289
 30
0.0
  0
VERTEX
  5
298
  8
0
 62
   250
 10
32.1522160322739126
 20
-18.1847230179076291
 30
0.0
  0
VERTEX
  5
299
  8
0
 62
   250
 10
31.2707682650739116
 20
-17.1020140073075808
 30
0.0
  0
VERTEX
  5
29A
  8
0
 62
   250
 10
31.0571220070739216
 20
-16.9120914255076187
 30
0.0
  0
VERTEX
  5
29B
  8
0
 62
   250
 10
31.016846928873921
 20
-16.8790647199076211
 30
0.0
  0
VERTEX
  5
29C
  8
0
 62
   250
 10
30.9611238754738984
 20
-16.8357266811076087
 30
0.0
  0
VERTEX
  5
29D
  8
0
 62
   250
 10
30.63391978007391
 20
-16.6757297951076993
 30
0.0
  0
VERTEX
  5
29E
  8
0
 62
   250
 10
30.3005517142739187
 20
-16.6024280113076195
 30
0.0
  0
VERTEX
  5
29F
  8
0
 62
   250
 10
30.1890675582739085
 20
-16.6024280113076195
 30
0.0
  0
VERTEX
  5
2A0
  8
0
 62
   250
 10
30.080703436673911
 20
-16.6024280113076017
 30
0.0
  0
VERTEX
  5
2A1
  8
0
 62
   250
 10
29.7534993412739084
 20
-16.6767571235076808
 30
0.0
  0
VERTEX
  5
2A2
  8
0
 62
   250
 10
29.4418002948739108
 20
-16.841909676107651
 30
0.0
  0
VERTEX
  5
2A3
  8
0
 62
   250
 10
29.389159226673911
 20
-16.8873213963076516
 30
0.0
  0
VERTEX
  5
2A4
  8
0
 62
   250
 10
29.3375645114739001
 20
-16.9327140919076093
 30
0.0
  0
VERTEX
  5
2A5
  8
0
 62
   250
 10
29.1414399100739203
 20
-17.2072771191075589
 30
0.0
  0
VERTEX
  5
2A6
  8
0
 62
   250
 10
29.0423597932739206
 20
-17.5251781851076416
 30
0.0
  0
VERTEX
  5
2A7
  8
0
 62
   250
 10
29.0382124304739015
 20
-17.5912315963076082
 30
0.0
  0
VERTEX
  5
2A8
  8
0
 62
   250
 10
29.0351114206739211
 20
-17.6521483655075784
 30
0.0
  0
VERTEX
  5
2A9
  8
0
 62
   250
 10
29.2198593112739218
 20
-18.1888513561076302
 30
0.0
  0
VERTEX
  5
2AA
  8
0
 62
   250
 10
29.2580797326739095
 20
-18.2311810911076009
 30
0.0
  0
VERTEX
  5
2AB
  8
0
 62
   250
 10
29.2983167616739202
 20
-18.2745381545075993
 30
0.0
  0
VERTEX
  5
2AC
  8
0
 62
   250
 10
29.3045187812739094
 20
-18.2807211495076416
 30
0.0
  0
VERTEX
  5
2AD
  8
0
 62
   250
 10
29.3571598494739092
 20
-18.3364442029076393
 30
0.0
  0
VERTEX
  5
2AE
  8
0
 62
   250
 10
29.3623155160739309
 20
-18.3416188941076115
 30
0.0
  0
VERTEX
  5
2AF
  8
0
 62
   250
 10
29.5398530832739112
 20
-18.5397981523076609
 30
0.0
  0
VERTEX
  5
2B0
  8
0
 62
   250
 10
29.9712929620739104
 20
-19.2251403427076184
 30
0.0
  0
VERTEX
  5
2B1
  8
0
 62
   250
 10
30.3335784198739091
 20
-20.2149712561076313
 30
0.0
  0
VERTEX
  5
2B2
  8
0
 62
   250
 10
30.4398688600739185
 20
-21.2563968847075699
 30
0.0
  0
VERTEX
  5
2B3
  8
0
 62
   250
 10
30.3490644442738891
 20
-22.0460129077076914
 30
0.0
  0
VERTEX
  5
2B4
  8
0
 62
   250
 10
30.2736889790739205
 20
-22.2947595527075606
 30
0.0
  0
VERTEX
  5
2B5
  8
0
 62
   250
 10
30.2540936410739185
 20
-22.3597856355076807
 30
0.0
  0
VERTEX
  5
2B6
  8
0
 62
   250
 10
29.9867789864739009
 20
-22.9956067921076013
 30
0.0
  0
VERTEX
  5
2B7
  8
0
 62
   250
 10
29.9527059278739003
 20
-23.0564855121076207
 30
0.0
  0
VERTEX
  5
2B8
  8
0
 62
   250
 10
29.8205991054738888
 20
-23.2980028091076186
 30
0.0
  0
VERTEX
  5
2B9
  8
0
 62
   250
 10
29.3385918398738994
 20
-23.9730336663076606
 30
0.0
  0
VERTEX
  5
2BA
  8
0
 62
   250
 10
28.6026442134739085
 20
-24.7120442533076385
 30
0.0
  0
VERTEX
  5
2BB
  8
0
 62
   250
 10
27.7563158578739184
 20
-25.265279621307581
 30
0.0
  0
VERTEX
  5
2BC
  8
0
 62
   250
 10
27.0533568878738997
 20
-25.5604843395076315
 30
0.0
  0
VERTEX
  5
2BD
  8
0
 62
   250
 10
26.8098420078739217
 20
-25.6234557655076109
 30
0.0
  0
VERTEX
  5
2BE
  8
0
 62
   250
 10
26.7149092538739197
 20
-25.6482067701076097
 30
0.0
  0
VERTEX
  5
2BF
  8
0
 62
   250
 10
25.7260105458739012
 20
-25.7854692591076393
 30
0.0
  0
VERTEX
  5
2C0
  8
0
 62
   250
 10
25.6238484438739
 20
-25.7875619651076811
 30
0.0
  0
VERTEX
  5
2C1
  8
0
 62
   250
 10
25.5918871158739094
 20
-25.7875619651076313
 30
0.0
  0
VERTEX
  5
2C2
  8
0
 62
   250
 10
25.5205448658739193
 20
-25.7885892935075702
 30
0.0
  0
VERTEX
  5
2C3
  8
0
 62
   250
 10
25.4958128858738995
 20
-25.7885892935075809
 30
0.0
  0
VERTEX
  5
2C4
  8
0
 62
   250
 10
25.2429759518738983
 20
-25.7885892935075809
 30
0.0
  0
VERTEX
  5
2C5
  8
0
 62
   250
 10
24.4812309678738984
 20
-25.6895091767075883
 30
0.0
  0
VERTEX
  5
2C6
  8
0
 62
   250
 10
23.5389425298738892
 20
-25.3891297673075584
 30
0.0
  0
VERTEX
  5
2C7
  8
0
 62
   250
 10
22.6719915078739085
 20
-24.8916364773076211
 30
0.0
  0
VERTEX
  5
2C8
  8
0
 62
   250
 10
22.0639652918739309
 20
-24.3879601923076486
 30
0.0
  0
VERTEX
  5
2C9
  8
0
 62
   250
 10
21.8843730678738986
 20
-24.1969912575076513
 30
0.0
  0
VERTEX
  5
2CA
  8
0
 62
   250
 10
21.8048502398739004
 20
-24.1123698367075612
 30
0.0
  0
VERTEX
  5
2CB
  8
0
 62
   250
 10
21.0647932998739194
 20
-23.1307955997075716
 30
0.0
  0
VERTEX
  5
2CC
  8
0
 62
   250
 10
20.9966852318739292
 20
-23.0203577967076995
 30
0.0
  0
VERTEX
  5
2CD
  8
0
 62
   250
 10
20.9297186398739292
 20
-22.9088736407075615
 30
0.0
  0
VERTEX
  5
2CE
  8
0
 62
   250
 10
20.3774345018739105
 20
-21.7167541555076298
 30
0.0
  0
VERTEX
  5
2CF
  8
0
 62
   250
 10
20.335199889873909
 20
-21.5908113035076887
 30
0.0
  0
VERTEX
  5
2D0
  8
0
 62
   250
 10
20.3277802958739109
 20
-21.5681149557076814
 30
0.0
  0
VERTEX
  5
2D1
  8
0
 62
   250
 10
20.2556770618738895
 20
-21.33072599690761
 30
0.0
  0
VERTEX
  5
2D2
  8
0
 62
   250
 10
20.2484477138739187
 20
-21.3069832961075711
 30
0.0
  0
VERTEX
  5
2D3
  8
0
 62
   250
 10
20.1689248858739205
 20
-21.0179996221076806
 30
0.0
  0
VERTEX
  5
2D4
  8
0
 62
   250
 10
20.01729882387394
 20
-19.5812428055076388
 30
0.0
  0
VERTEX
  5
2D5
  8
0
 62
   250
 10
20.1938471118739109
 20
-18.2043373805076101
 30
0.0
  0
VERTEX
  5
2D6
  8
0
 62
   250
 10
20.2783163358739387
 20
-17.9432247455076812
 30
0.0
  0
VERTEX
  5
2D7
  8
0
 62
   250
 10
20.3671612178738997
 20
-17.6717437035076301
 30
0.0
  0
VERTEX
  5
2D8
  8
0
 62
   250
 10
20.7480337098738907
 20
-16.894531719707679
 30
0.0
  0
VERTEX
  5
2D9
  8
0
 62
   250
 10
21.4426218558739308
 20
-15.9346455267076408
 30
0.0
  0
VERTEX
  5
2DA
  8
0
 62
   250
 10
22.3499050298738986
 20
-15.07692143570765
 30
0.0
  0
VERTEX
  5
2DB
  8
0
 62
   250
 10
23.1704360278739117
 20
-14.4978887101076204
 30
0.0
  0
VERTEX
  5
2DC
  8
0
 62
   250
 10
23.4594197018739195
 20
-14.3337825105076604
 30
0.0
  0
VERTEX
  5
2DD
  8
0
 62
   250
 10
23.7504960818739193
 20
-14.1706846147076
 30
0.0
  0
VERTEX
  5
2DE
  8
0
 62
   250
 10
25.3122254958739283
 20
-13.5885699039076293
 30
0.0
  0
VERTEX
  5
2DF
  8
0
 62
   250
 10
26.8149786498739111
 20
-13.33360221470768
 30
0.0
  0
VERTEX
  5
2E0
  8
0
 62
   250
 10
27.3155158758739205
 20
-13.33360221470768
 30
0.0
  0
VERTEX
  5
2E1
  8
0
 62
   250
 10
27.7964577638738994
 20
-13.3336022147076196
 30
0.0
  0
VERTEX
  5
2E2
  8
0
 62
   250
 10
29.2394926984739101
 20
-13.5586251835075604
 30
0.0
  0
VERTEX
  5
2E3
  8
0
 62
   250
 10
31.0354149384739095
 20
-14.2088669869076796
 30
0.0
  0
VERTEX
  5
2E4
  8
0
 62
   250
 10
32.628040302873913
 20
-15.2472296549075494
 30
0.0
  0
VERTEX
  5
2E5
  8
0
 62
   250
 10
33.6601819266739213
 20
-16.2535739211076198
 30
0.0
  0
VERTEX
  5
2E6
  8
0
 62
   250
 10
33.9419552772738982
 20
-16.6344273885076106
 30
0.0
  0
VERTEX
  5
2E7
  8
0
 62
   250
 10
34.2196193142739133
 20
-17.0091168855076198
 30
0.0
  0
VERTEX
  5
2E8
  8
0
 62
   250
 10
34.8481920982738984
 20
-18.2838031347075685
 30
0.0
  0
VERTEX
  5
2E9
  8
0
 62
   250
 10
35.2961453298739087
 20
-20.14168849690763
 30
0.0
  0
VERTEX
  5
2EA
  8
0
 62
   250
 10
35.2786046486739124
 20
-22.1616063773075993
 30
0.0
  0
VERTEX
  5
2EB
  8
0
 62
   250
 10
34.9637855678739129
 20
-23.7800100747076115
 30
0.0
  0
VERTEX
  5
2EC
  8
0
 62
   250
 10
34.791441716473912
 20
-24.2960903989076513
 30
0.0
  0
VERTEX
  5
2ED
  8
0
 62
   250
 10
34.5529873800739011
 20
-25.0165329763075697
 30
0.0
  0
VERTEX
  5
2EE
  8
0
 62
   250
 10
33.4981303838739208
 20
-27.0652921503075987
 30
0.0
  0
VERTEX
  5
2EF
  8
0
 62
   250
 10
31.6495670756739109
 20
-29.5012019343076517
 30
0.0
  0
VERTEX
  5
2F0
  8
0
 62
   250
 10
29.4376719566739098
 20
-31.4004277523075714
 30
0.0
  0
VERTEX
  5
2F1
  8
0
 62
   250
 10
27.6767930298739095
 20
-32.3725848123076076
 30
0.0
  0
VERTEX
  5
2F2
  8
0
 62
   250
 10
27.0491714758739086
 20
-32.5605478603076079
 30
0.0
  0
VERTEX
  5
2F3
  8
0
 62
   250
 10
26.4588381378739115
 20
-32.7380473783076198
 30
0.0
  0
VERTEX
  5
2F4
  8
0
 62
   250
 10
23.6513779158739013
 20
-33.3603420443076217
 30
0.0
  0
VERTEX
  5
2F5
  8
0
 62
   250
 10
20.9957340018739202
 20
-33.641145140307593
 30
0.0
  0
VERTEX
  5
2F6
  8
0
 62
   250
 10
20.4818795558739311
 20
-33.6462817823076534
 30
0.0
  0
VERTEX
  5
2F7
  8
0
 62
   250
 10
19.8571116918739214
 20
-33.6462817823076108
 30
0.0
  0
VERTEX
  5
2F8
  8
0
 62
   250
 10
19.0883276058739
 20
-33.6462817823076108
 30
0.0
  0
VERTEX
  5
2F9
  8
0
 62
   250
 10
17.016738911873901
 20
-33.6318230863075769
 30
0.0
  0
VERTEX
  5
2FA
  8
0
 62
   250
 10
16.781594855873859
 20
-33.6287791503076434
 30
0.0
  0
VERTEX
  5
2FB
  8
0
 62
   250
 10
15.5708693118738903
 20
-33.6287791503076434
 30
0.0
  0
VERTEX
  5
2FC
  8
0
 62
   250
 10
15.1352059718738907
 20
-33.6411451403076214
 30
0.0
  0
VERTEX
  5
2FD
  8
0
 62
   250
 10
13.8335428398739104
 20
-33.8867527263076198
 30
0.0
  0
VERTEX
  5
2FE
  8
0
 62
   250
 10
12.2295788138739105
 20
-34.5349208483076211
 30
0.0
  0
VERTEX
  5
2FF
  8
0
 62
   250
 10
10.8196657078739307
 20
-35.5382782523076131
 30
0.0
  0
VERTEX
  5
300
  8
0
 62
   250
 10
9.9104800738739041
 20
-36.5022547343075985
 30
0.0
  0
VERTEX
  5
301
  8
0
 62
   250
 10
9.663731011873903
 20
-36.8625806583076212
 30
0.0
  0
VERTEX
  5
302
  8
0
 62
   250
 10
21.9142416898739008
 20
-36.8625806583076283
 30
0.0
  0
VERTEX
  5
303
  8
0
 62
   250
 10
21.9338370278738886
 20
-36.8625806583076212
 30
0.0
  0
VERTEX
  5
304
  8
0
 62
   250
 10
21.9886278758739309
 20
-36.8707612363076223
 30
0.0
  0
VERTEX
  5
305
  8
0
 62
   250
 10
21.9928132878739291
 20
-36.8719027123076017
 30
0.0
  0
VERTEX
  5
306
  8
0
 62
   250
 10
22.0000426358739105
 20
-36.8739954183076293
 30
0.0
  0
VERTEX
  5
307
  8
0
 62
   250
 10
22.0597798798739007
 20
-36.8892150983076235
 30
0.0
  0
VERTEX
  5
308
  8
0
 62
   250
 10
22.0649165218739185
 20
-36.8914980503076109
 30
0.0
  0
VERTEX
  5
309
  8
0
 62
   250
 10
22.0784239878739115
 20
-36.8977761683076224
 30
0.0
  0
VERTEX
  5
30A
  8
0
 62
   250
 10
22.1889569138739411
 20
-36.9698794023076118
 30
0.0
  0
VERTEX
  5
30B
  8
0
 62
   250
 10
22.1971374918738995
 20
-36.9780599803075916
 30
0.0
  0
VERTEX
  5
30C
  8
0
 62
   250
 10
25.1995998638738996
 20
-39.9826150583076085
 30
0.0
  0
VERTEX
  5
30D
  8
0
 62
   250
 10
25.2387905398739107
 20
-39.9651124263075985
 30
0.0
  0
VERTEX
  5
30E
  8
0
 62
   250
 10
25.5825650618739004
 20
-39.8711309023075913
 30
0.0
  0
VERTEX
  5
30F
  8
0
 62
   250
 10
25.6970931538739187
 20
-39.8711309023075913
 30
0.0
  0
VERTEX
  5
310
  8
0
 62
   250
 10
25.8097187858739083
 20
-39.8711309023075913
 30
0.0
  0
VERTEX
  5
311
  8
0
 62
   250
 10
26.1451224838739194
 20
-39.9609270143076003
 30
0.0
  0
VERTEX
  5
312
  8
0
 62
   250
 10
26.4702528978738982
 20
-40.160114576307592
 30
0.0
  0
VERTEX
  5
313
  8
0
 62
   250
 10
26.5259949758739211
 20
-40.2149054243076307
 30
0.0
  0
VERTEX
  5
314
  8
0
 62
   250
 10
26.5817370538739084
 20
-40.2706475023075967
 30
0.0
  0
VERTEX
  5
315
  8
0
 62
   250
 10
26.7809246158739214
 20
-40.594826686307627
 30
0.0
  0
VERTEX
  5
316
  8
0
 62
   250
 10
26.8686280218739206
 20
-40.9323230903076194
 30
0.0
  0
VERTEX
  5
317
  8
0
 62
   250
 10
26.8686280218739206
 20
-41.0447584763076065
 30
0.0
  0
VERTEX
  5
318
  8
0
 62
   250
 10
26.8686280218739206
 20
-41.1573841083075891
 30
0.0
  0
VERTEX
  5
319
  8
0
 62
   250
 10
26.7809246158739214
 20
-41.4948805123076312
 30
0.0
  0
VERTEX
  5
31A
  8
0
 62
   250
 10
26.5817370538739084
 20
-41.819820680307572
 30
0.0
  0
VERTEX
  5
31B
  8
0
 62
   250
 10
26.5259949758739211
 20
-41.8746115283075824
 30
0.0
  0
VERTEX
  5
31C
  8
0
 62
   250
 10
26.4712041278739214
 20
-41.9303536063076479
 30
0.0
  0
VERTEX
  5
31D
  8
0
 62
   250
 10
26.1472151898739007
 20
-42.1283996923076174
 30
0.0
  0
VERTEX
  5
31E
  8
0
 62
   250
 10
25.809718785873919
 20
-42.2161030983076415
 30
0.0
  0
VERTEX
  5
31F
  8
0
 62
   250
 10
25.6970931538739009
 20
-42.2161030983075989
 30
0.0
  0
VERTEX
  5
320
  8
0
 62
   250
 10
25.5856089978739085
 20
-42.2161030983076415
 30
0.0
  0
VERTEX
  5
321
  8
0
 62
   250
 10
25.248112593873909
 20
-42.1283996923076174
 30
0.0
  0
VERTEX
  5
322
  8
0
 62
   250
 10
24.9241236558739097
 20
-41.9303536063075981
 30
0.0
  0
VERTEX
  5
323
  8
0
 62
   250
 10
24.8683815778739117
 20
-41.8746115283075966
 30
0.0
  0
VERTEX
  5
324
  8
0
 62
   250
 10
24.7806781718739089
 20
-41.7867178763076126
 30
0.0
  0
VERTEX
  5
325
  8
0
 62
   250
 10
24.5432511638739186
 20
-41.2441362843076007
 30
0.0
  0
VERTEX
  5
326
  8
0
 62
   250
 10
24.5833930698739209
 20
-40.6577981123076029
 30
0.0
  0
VERTEX
  5
327
  8
0
 62
   250
 10
24.6351399818739196
 20
-40.5472651863075981
 30
0.0
  0
VERTEX
  5
328
  8
0
 62
   250
 10
21.7472057018739306
 20
-37.6623748423076066
 30
0.0
  0
VERTEX
  5
329
  8
0
 62
   250
 10
9.1867842898739127
 20
-37.6623748423076066
 30
0.0
  0
VERTEX
  5
32A
  8
0
 62
   250
 10
9.1125883498738638
 20
-37.8111472143075602
 30
0.0
  0
VERTEX
  5
32B
  8
0
 62
   250
 10
8.5574505218739318
 20
-39.4232918183075896
 30
0.0
  0
VERTEX
  5
32C
  8
0
 62
   250
 10
8.5211135358739121
 20
-39.5954644483076166
 30
0.0
  0
VERTEX
  5
32D
  8
0
 62
   250
 10
8.4963815558739242
 20
-39.7204560703075913
 30
0.0
  0
VERTEX
  5
32E
  8
0
 62
   250
 10
8.3858486298738946
 20
-40.9074008643076183
 30
0.0
  0
VERTEX
  5
32F
  8
0
 62
   250
 10
8.387941335873883
 20
-41.0221192023075929
 30
0.0
  0
SEQEND
  5
E8
  8
0
 62
   250
  0
POLYLINE
  5
330
  8
0
 62
   250
 66
     1
 10
0.0
 20
0.0
 30
0.0
 70
   129
  0
VERTEX
  5
331
  8
0
 62
   250
 10
23.497659147873911
 20
-50.667591402307643
 30
0.0
  0
VERTEX
  5
332
  8
0
 62
   250
 10
24.1973839358739085
 20
-50.4373937423075986
 30
0.0
  0
VERTEX
  5
334
  8
0
 62
   250
 10
24.9684509738738889
 20
-49.8883437863076225
 30
0.0
  0
VERTEX
  5
335
  8
0
 62
   250
 10
25.5051349398739013
 20
-49.1077644483075986
 30
0.0
  0
VERTEX
  5
336
  8
0
 62
   250
 10
25.7250593158738994
 20
-48.4030932643076071
 30
0.0
  0
VERTEX
  5
337
  8
0
 62
   250
 10
25.7395180118739084
 20
-48.1645247803076018
 30
0.0
  0
VERTEX
  5
338
  8
0
 62
   250
 10
25.7539767078738997
 20
-47.926146542307599
 30
0.0
  0
VERTEX
  5
339
  8
0
 62
   250
 10
25.6208045078739097
 20
-47.1975043623075976
 30
0.0
  0
VERTEX
  5
33A
  8
0
 62
   250
 10
25.1811460018739091
 20
-46.3552853203075728
 30
0.0
  0
VERTEX
  5
33B
  8
0
 62
   250
 10
24.4802797378739108
 20
-45.7152977763076365
 30
0.0
  0
VERTEX
  5
33C
  8
0
 62
   250
 10
23.8104235718739083
 20
-45.4004406463076222
 30
0.0
  0
VERTEX
  5
33D
  8
0
 62
   250
 10
23.5750892698739207
 20
-45.3538303763075987
 30
0.0
  0
VERTEX
  5
33E
  8
0
 62
   250
 10
23.5079324318739111
 20
-45.3395619263076028
 30
0.0
  0
VERTEX
  5
33F
  8
0
 62
   250
 10
23.4904297998739011
 20
-45.3365179903076267
 30
0.0
  0
VERTEX
  5
340
  8
0
 62
   250
 10
23.3015155218739203
 20
-45.3087420743076379
 30
0.0
  0
VERTEX
  5
341
  8
0
 62
   250
 10
23.2746908358739191
 20
-45.3066493683076175
 30
0.0
  0
VERTEX
  5
342
  8
0
 62
   250
 10
23.2623248458739091
 20
-45.3055078923075669
 30
0.0
  0
VERTEX
  5
343
  8
0
 62
   250
 10
23.219899987873891
 20
-45.3055078923075669
 30
0.0
  0
VERTEX
  5
344
  8
0
 62
   250
 10
23.0930059058739303
 20
-45.3766598963076291
 30
0.0
  0
VERTEX
  5
345
  8
0
 62
   250
 10
23.0228051318739091
 20
-45.504695454307587
 30
0.0
  0
VERTEX
  5
346
  8
0
 62
   250
 10
23.0228051318738913
 20
-45.5471203123076265
 30
0.0
  0
VERTEX
  5
347
  8
0
 62
   250
 10
23.02280513187387
 20
-47.4048725023075832
 30
0.0
  0
VERTEX
  5
348
  8
0
 62
   250
 10
23.0228051318739091
 20
-47.4471071143076131
 30
0.0
  0
VERTEX
  5
349
  8
0
 62
   250
 10
23.0930059058738983
 20
-47.5741914423076082
 30
0.0
  0
VERTEX
  5
34A
  8
0
 62
   250
 10
23.2198999878739087
 20
-47.6442019703075985
 30
0.0
  0
VERTEX
  5
34B
  8
0
 62
   250
 10
23.2613736158739215
 20
-47.6442019703075985
 30
0.0
  0
VERTEX
  5
34C
  8
0
 62
   250
 10
23.4780638098739303
 20
-47.6442019703075985
 30
0.0
  0
VERTEX
  5
34D
  8
0
 62
   250
 10
23.5202984218739317
 20
-47.6442019703075985
 30
0.0
  0
VERTEX
  5
34E
  8
0
 62
   250
 10
23.6473827498738913
 20
-47.5741914423076082
 30
0.0
  0
VERTEX
  5
34F
  8
0
 62
   250
 10
23.7164420478739011
 20
-47.4471071143076131
 30
0.0
  0
VERTEX
  5
350
  8
0
 62
   250
 10
23.7164420478739295
 20
-47.4048725023075832
 30
0.0
  0
VERTEX
  5
351
  8
0
 62
   250
 10
23.7164420478739117
 20
-46.1117704403076019
 30
0.0
  0
VERTEX
  5
352
  8
0
 62
   250
 10
23.8610290078738991
 20
-46.163327106307591
 30
0.0
  0
VERTEX
  5
353
  8
0
 62
   250
 10
24.2614968378738993
 20
-46.4058907563076275
 30
0.0
  0
VERTEX
  5
354
  8
0
 62
   250
 10
24.6825112358739105
 20
-46.8402223743076078
 30
0.0
  0
VERTEX
  5
355
  8
0
 62
   250
 10
24.9549435078739101
 20
-47.3822332283076122
 30
0.0
  0
VERTEX
  5
356
  8
0
 62
   250
 10
25.0510177378739094
 20
-47.8435797783076424
 30
0.0
  0
VERTEX
  5
357
  8
0
 62
   250
 10
25.0510177378738987
 20
-47.9961570703075893
 30
0.0
  0
VERTEX
  5
358
  8
0
 62
   250
 10
25.0510177378738987
 20
-48.1955348783076118
 30
0.0
  0
VERTEX
  5
359
  8
0
 62
   250
 10
24.88683543987392
 20
-48.7921463343075885
 30
0.0
  0
VERTEX
  5
35A
  8
0
 62
   250
 10
24.4389963558739112
 20
-49.436319290307587
 30
0.0
  0
VERTEX
  5
35B
  8
0
 62
   250
 10
23.7773207678739098
 20
-49.8615191003075893
 30
0.0
  0
VERTEX
  5
35C
  8
0
 62
   250
 10
23.1704360278739188
 20
-50.0049645843076007
 30
0.0
  0
VERTEX
  5
35D
  8
0
 62
   250
 10
22.9702972358739217
 20
-49.9977352363075909
 30
0.0
  0
VERTEX
  5
35E
  8
0
 62
   250
 10
22.7916562418738984
 20
-49.9914571183076006
 30
0.0
  0
VERTEX
  5
35F
  8
0
 62
   250
 10
22.2589674418739207
 20
-49.8326017083075925
 30
0.0
  0
VERTEX
  5
360
  8
0
 62
   250
 10
21.6634974618738987
 20
-49.4330851083075871
 30
0.0
  0
VERTEX
  5
361
  8
0
 62
   250
 10
21.2434342938739285
 20
-48.8532153003076104
 30
0.0
  0
VERTEX
  5
362
  8
0
 62
   250
 10
21.0668860058739007
 20
-48.3264241263076073
 30
0.0
  0
VERTEX
  5
363
  8
0
 62
   250
 10
21.0535687858739209
 20
-48.1470221483076131
 30
0.0
  0
VERTEX
  5
364
  8
0
 62
   250
 10
21.0431052558739005
 20
-48.0005327283075971
 30
0.0
  0
VERTEX
  5
365
  8
0
 62
   250
 10
21.1009400398739011
 20
-47.5536448743075866
 30
0.0
  0
VERTEX
  5
366
  8
0
 62
   250
 10
21.3145862978738911
 20
-47.0074486083075911
 30
0.0
  0
VERTEX
  5
367
  8
0
 62
   250
 10
21.6728195158739183
 20
-46.5472435343075972
 30
0.0
  0
VERTEX
  5
368
  8
0
 62
   250
 10
22.0238233858739214
 20
-46.271577080307587
 30
0.0
  0
VERTEX
  5
369
  8
0
 62
   250
 10
22.1537614038739115
 20
-46.2055617183075782
 30
0.0
  0
VERTEX
  5
36A
  8
0
 62
   250
 10
22.1682200998739312
 20
-46.1994738463076118
 30
0.0
  0
VERTEX
  5
36B
  8
0
 62
   250
 10
22.3086216478739203
 20
-46.1374536503075916
 30
0.0
  0
VERTEX
  5
36C
  8
0
 62
   250
 10
22.3219388678739001
 20
-46.1302243023076173
 30
0.0
  0
VERTEX
  5
36D
  8
0
 62
   250
 10
22.3396317458738984
 20
-46.1220437243076091
 30
0.0
  0
VERTEX
  5
36E
  8
0
 62
   250
 10
22.4201058038739092
 20
-46.0474672923076014
 30
0.0
  0
VERTEX
  5
36F
  8
0
 62
   250
 10
22.4572037738739212
 20
-45.8990754123075888
 30
0.0
  0
VERTEX
  5
370
  8
0
 62
   250
 10
22.4530183618739017
 20
-45.8524651423076008
 30
0.0
  0
VERTEX
  5
371
  8
0
 62
   250
 10
22.4541598378738883
 20
-45.5925891063075923
 30
0.0
  0
VERTEX
  5
372
  8
0
 62
   250
 10
22.4520671318739105
 20
-45.561579008307632
 30
0.0
  0
VERTEX
  5
373
  8
0
 62
   250
 10
22.2930214758739282
 20
-45.4468606703076077
 30
0.0
  0
VERTEX
  5
374
  8
0
 62
   250
 10
22.239372103873901
 20
-45.4468606703076077
 30
0.0
  0
VERTEX
  5
375
  8
0
 62
   250
 10
22.1929520798739297
 20
-45.4468606703076077
 30
0.0
  0
VERTEX
  5
376
  8
0
 62
   250
 10
22.0723361158739202
 20
-45.4820561803075805
 30
0.0
  0
VERTEX
  5
377
  8
0
 62
   250
 10
22.0536920078739094
 20
-45.4892855283075832
 30
0.0
  0
VERTEX
  5
378
  8
0
 62
   250
 10
21.8689631418739303
 20
-45.5627204843076186
 30
0.0
  0
VERTEX
  5
379
  8
0
 62
   250
 10
21.3600550918739103
 20
-45.8979339363076022
 30
0.0
  0
VERTEX
  5
37A
  8
0
 62
   250
 10
20.8233711258739298
 20
-46.4833208783076088
 30
0.0
  0
VERTEX
  5
37B
  8
0
 62
   250
 10
20.477503897873909
 20
-47.1995970683075967
 30
0.0
  0
VERTEX
  5
37C
  8
0
 62
   250
 10
20.3547952278739004
 20
-47.7973500003076097
 30
0.0
  0
VERTEX
  5
37D
  8
0
 62
   250
 10
20.3547952278739004
 20
-47.9961570703076177
 30
0.0
  0
VERTEX
  5
37E
  8
0
 62
   250
 10
20.354795227873911
 20
-48.26992106430761
 30
0.0
  0
VERTEX
  5
37F
  8
0
 62
   250
 10
20.5868953478739201
 20
-49.0904520623075911
 30
0.0
  0
VERTEX
  5
380
  8
0
 62
   250
 10
21.2154681318739016
 20
-49.9697690743076208
 30
0.0
  0
VERTEX
  5
381
  8
0
 62
   250
 10
22.1393027078739095
 20
-50.535560678307597
 30
0.0
  0
VERTEX
  5
382
  8
0
 62
   250
 10
22.9847559318739307
 20
-50.7067820783076115
 30
0.0
  0
VERTEX
  5
383
  8
0
 62
   250
 10
23.2592809098739011
 20
-50.6850940343076104
 30
0.0
  0
SEQEND
  5
333
  8
0
 62
   250
  0
POLYLINE
  5
384
  8
0
 62
   250
 66
     1
 10
0.0
 20
0.0
 30
0.0
 70
   129
  0
VERTEX
  5
385
  8
0
 62
   250
 10
23.4780638098738983
 20
-48.4369570523076121
 30
0.0
  0
VERTEX
  5
386
  8
0
 62
   250
 10
23.5202984218739211
 20
-48.4369570523075907
 30
0.0
  0
VERTEX
  5
388
  8
0
 62
   250
 10
23.6473827498739091
 20
-48.3678977543075987
 30
0.0
  0
VERTEX
  5
389
  8
0
 62
   250
 10
23.7164420478739011
 20
-48.2408134263076178
 30
0.0
  0
VERTEX
  5
38A
  8
0
 62
   250
 10
23.7164420478739295
 20
-48.1985788143076235
 30
0.0
  0
VERTEX
  5
38B
  8
0
 62
   250
 10
23.7164420478739011
 20
-48.0821482623075909
 30
0.0
  0
VERTEX
  5
38C
  8
0
 62
   250
 10
23.7164420478739011
 20
-48.0399136503075965
 30
0.0
  0
VERTEX
  5
38D
  8
0
 62
   250
 10
23.6473827498739091
 20
-47.9126390763076273
 30
0.0
  0
VERTEX
  5
38E
  8
0
 62
   250
 10
23.5202984218739211
 20
-47.842438302307599
 30
0.0
  0
VERTEX
  5
38F
  8
0
 62
   250
 10
23.4780638098739196
 20
-47.842438302307599
 30
0.0
  0
VERTEX
  5
390
  8
0
 62
   250
 10
23.2613736158739215
 20
-47.8424383023075777
 30
0.0
  0
VERTEX
  5
391
  8
0
 62
   250
 10
23.2198999878739194
 20
-47.8424383023075777
 30
0.0
  0
VERTEX
  5
392
  8
0
 62
   250
 10
23.0930059058739303
 20
-47.9126390763076273
 30
0.0
  0
VERTEX
  5
393
  8
0
 62
   250
 10
23.02280513187387
 20
-48.0399136503075965
 30
0.0
  0
VERTEX
  5
394
  8
0
 62
   250
 10
23.02280513187387
 20
-48.0821482623076122
 30
0.0
  0
VERTEX
  5
395
  8
0
 62
   250
 10
23.0228051318738913
 20
-48.1985788143076022
 30
0.0
  0
VERTEX
  5
396
  8
0
 62
   250
 10
23.02280513187387
 20
-48.2408134263076107
 30
0.0
  0
VERTEX
  5
397
  8
0
 62
   250
 10
23.0930059058739197
 20
-48.3678977543075774
 30
0.0
  0
VERTEX
  5
398
  8
0
 62
   250
 10
23.2198999878739087
 20
-48.4369570523076121
 30
0.0
  0
VERTEX
  5
399
  8
0
 62
   250
 10
23.2613736158739215
 20
-48.4369570523075907
 30
0.0
  0
SEQEND
  5
387
  8
0
 62
   250
  0
ENDSEC
  0
EOF
